<svg width="61" height="21" viewBox="0 0 61 21" fill="none" xmlns="http://www.w3.org/2000/svg">
<path d="M13.583 12.6367C13.6195 12.6094 13.6514 12.6003 13.6787 12.6094C13.7061 12.6185 13.7197 12.639 13.7197 12.6709C13.7197 12.6982 13.6992 12.7279 13.6582 12.7598C13.2253 13.0833 12.7969 13.4046 12.373 13.7236C10.7643 14.9359 9.28776 16.0273 7.94336 16.998C6.59896 17.9733 5.43229 18.7503 4.44336 19.3291C3.73242 19.7393 3.1377 20.056 2.65918 20.2793C2.18066 20.5026 1.79329 20.6553 1.49707 20.7373C1.20085 20.8193 0.966146 20.8604 0.792969 20.8604C0.633464 20.8604 0.512695 20.8398 0.430664 20.7988C0.143555 20.6849 0.0205078 20.4479 0.0615234 20.0879C0.129883 19.7051 0.33724 19.2653 0.683594 18.7686C1.03451 18.2718 1.42188 17.7933 1.8457 17.333C2.26953 16.8727 2.625 16.5059 2.91211 16.2324C3.62305 15.5397 4.37728 14.8698 5.1748 14.2227C5.24316 14.1634 5.2819 14.1224 5.29102 14.0996C5.30469 14.0723 5.30013 14.0563 5.27734 14.0518C5.25456 14.0472 5.22721 14.0472 5.19531 14.0518C5.1862 14.0563 5.17936 14.0586 5.1748 14.0586C4.71452 14.1361 4.39551 14.0654 4.21777 13.8467C4.08561 13.7191 4.0446 13.4889 4.09473 13.1562C4.14486 12.8236 4.38867 12.3063 4.82617 11.6045C5.26823 10.8981 6.00879 9.92057 7.04785 8.67188C8.88444 6.47982 10.3838 4.90755 11.5459 3.95508C12.6761 3.02995 13.4736 2.71777 13.9385 3.01855C14.1481 3.15983 14.2575 3.4082 14.2666 3.76367C14.2803 4.11458 14.1686 4.5498 13.9316 5.06934C13.7539 5.42936 13.5124 5.80078 13.207 6.18359C12.9017 6.56185 12.6169 6.89909 12.3525 7.19531C12.2067 7.35938 12.0882 7.49609 11.9971 7.60547C11.9105 7.71029 11.874 7.77181 11.8877 7.79004C11.9105 7.81283 11.9857 7.76953 12.1133 7.66016C12.2454 7.55078 12.4118 7.40267 12.6123 7.21582C12.9176 6.92871 13.248 6.63704 13.6035 6.34082C13.9635 6.0446 14.2826 5.84408 14.5605 5.73926C14.6745 5.71191 14.752 5.74609 14.793 5.8418C14.834 5.93294 14.8385 6.0332 14.8066 6.14258C14.7656 6.25195 14.6973 6.34082 14.6016 6.40918C14.5059 6.47298 14.4056 6.5026 14.3008 6.49805C14.0091 6.48438 13.7015 6.59375 13.3779 6.82617C13.0589 7.05404 12.6943 7.36393 12.2842 7.75586C12.0882 7.92904 11.9378 8.02474 11.833 8.04297C11.7282 8.0612 11.6621 8.04069 11.6348 7.98145C11.6257 7.94043 11.6325 7.89258 11.6553 7.83789C11.6826 7.77865 11.7122 7.72396 11.7441 7.67383C11.7806 7.6237 11.8079 7.58724 11.8262 7.56445C12.1589 7.17708 12.4961 6.76009 12.8379 6.31348C13.1797 5.8623 13.4303 5.44531 13.5898 5.0625C13.7448 4.6569 13.8109 4.35384 13.7881 4.15332C13.7699 3.9528 13.7015 3.82064 13.583 3.75684C13.5329 3.71582 13.3643 3.73405 13.0771 3.81152C12.7946 3.889 12.4209 4.11003 11.9561 4.47461C11.3955 4.92578 10.7096 5.5319 9.89844 6.29297C9.08724 7.05404 8.19401 7.97917 7.21875 9.06836C6.43945 9.95703 5.84017 10.693 5.4209 11.2764C5.00163 11.8597 4.71452 12.3245 4.55957 12.6709C4.40918 13.0127 4.34538 13.2679 4.36816 13.4365C4.39095 13.6006 4.45475 13.7054 4.55957 13.751C4.68262 13.8239 4.8763 13.8376 5.14062 13.792C5.40495 13.7419 5.7832 13.5846 6.27539 13.3203C6.76758 13.056 7.41243 12.6413 8.20996 12.0762C8.27376 12.026 8.33984 11.9577 8.4082 11.8711C8.50846 11.7389 8.62012 11.6364 8.74316 11.5635C8.87077 11.486 9.01204 11.5202 9.16699 11.666C9.17611 11.6706 9.18066 11.6751 9.18066 11.6797C9.18522 11.6797 9.1875 11.682 9.1875 11.6865C9.19206 11.6911 9.19434 11.6934 9.19434 11.6934C9.19434 11.6979 9.19434 11.7025 9.19434 11.707C9.19434 11.7116 9.19661 11.7184 9.20117 11.7275C9.25586 11.8962 9.17383 12.042 8.95508 12.165C6.95443 13.4001 5.05859 14.8835 3.26758 16.6152C2.69792 17.1712 2.18294 17.7135 1.72266 18.2422C1.26237 18.7754 0.918294 19.2402 0.69043 19.6367C0.467122 20.0332 0.426107 20.3066 0.567383 20.457C0.653971 20.571 0.897786 20.5846 1.29883 20.498C1.69987 20.4115 2.36296 20.1198 3.28809 19.623C4.21777 19.1263 5.51204 18.3219 7.1709 17.21C8.83431 16.098 10.9717 14.5736 13.583 12.6367ZM23.4951 12.6162C23.5088 12.6071 23.5247 12.6048 23.543 12.6094C23.5612 12.6094 23.5749 12.6162 23.584 12.6299C23.5977 12.639 23.5977 12.6549 23.584 12.6777C23.5749 12.7005 23.5452 12.7301 23.4951 12.7666C22.6702 13.3271 21.9069 13.8193 21.2051 14.2432C20.5033 14.667 19.9017 14.9746 19.4004 15.166C18.9036 15.3574 18.5482 15.3893 18.334 15.2617C18.179 15.1432 18.0879 14.9678 18.0605 14.7354C18.0332 14.4984 18.04 14.2477 18.0811 13.9834C18.1266 13.7145 18.179 13.4707 18.2383 13.252C18.2474 13.2201 18.2497 13.1995 18.2451 13.1904C18.2451 13.1813 18.2406 13.1813 18.2314 13.1904C18.2223 13.195 18.2132 13.2018 18.2041 13.2109C18.1995 13.2155 18.1973 13.2201 18.1973 13.2246C18.1927 13.2246 18.1904 13.2269 18.1904 13.2314C18.1859 13.2314 18.1836 13.2314 18.1836 13.2314C18.1198 13.2998 18.056 13.3682 17.9922 13.4365C17.6048 13.8604 17.2516 14.2044 16.9326 14.4688C16.6182 14.7331 16.3424 14.8219 16.1055 14.7354C15.9551 14.6533 15.9141 14.4232 15.9824 14.0449C16.0508 13.6667 16.1898 13.2155 16.3994 12.6914C16.609 12.1628 16.846 11.6364 17.1104 11.1123C17.1286 11.0758 17.1354 11.0531 17.1309 11.0439C17.1309 11.0348 17.124 11.0348 17.1104 11.0439C17.0967 11.0531 17.083 11.0667 17.0693 11.085C16.4313 11.7458 15.7158 12.4453 14.9229 13.1836C14.1299 13.9173 13.4827 14.4688 12.9814 14.8379C12.6761 15.0475 12.446 15.1432 12.291 15.125C12.1315 15.1022 12.1338 14.9518 12.2979 14.6738C12.4027 14.5052 12.5052 14.3389 12.6055 14.1748C12.8288 13.7874 13.1751 13.2611 13.6445 12.5957C13.7174 12.4954 13.8086 12.4316 13.918 12.4043C14.0273 12.3724 14.1276 12.377 14.2188 12.418C14.3099 12.4635 14.3828 12.5228 14.4375 12.5957C14.4922 12.6686 14.4785 12.7484 14.3965 12.835C14.1823 13.0446 13.9271 13.3158 13.6309 13.6484C13.3301 13.9811 13.1045 14.25 12.9541 14.4551C12.9404 14.4733 12.929 14.4938 12.9199 14.5166C12.9062 14.5348 12.8994 14.5531 12.8994 14.5713C12.8994 14.585 12.9085 14.5895 12.9268 14.585C12.945 14.5804 12.9792 14.5622 13.0293 14.5303C13.3438 14.3115 13.9134 13.8239 14.7383 13.0674C15.5677 12.3063 16.4746 11.4017 17.459 10.3535C17.5365 10.276 17.6344 10.2327 17.7529 10.2236C17.876 10.21 17.9785 10.2305 18.0605 10.2852C18.1426 10.3353 18.1676 10.4219 18.1357 10.5449C18.1357 10.5449 18.0537 10.6702 17.8896 10.9209C17.7256 11.1715 17.5319 11.4906 17.3086 11.8779C17.0898 12.2607 16.8825 12.6641 16.6865 13.0879C16.4951 13.5117 16.3607 13.9036 16.2832 14.2637C16.2832 14.2682 16.2832 14.2728 16.2832 14.2773C16.2832 14.2819 16.2832 14.2842 16.2832 14.2842C16.2786 14.307 16.2741 14.3275 16.2695 14.3457C16.2604 14.3958 16.2604 14.4437 16.2695 14.4893C16.2786 14.5348 16.3037 14.5736 16.3447 14.6055C16.4906 14.6693 16.7025 14.5622 16.9805 14.2842C17.263 14.0016 17.5547 13.6803 17.8555 13.3203C18.0788 13.056 18.277 12.835 18.4502 12.6572C18.6234 12.4749 18.7464 12.3883 18.8193 12.3975C18.9743 12.443 19.0472 12.5319 19.0381 12.6641C19.029 12.7917 18.9925 12.9443 18.9287 13.1221C18.9014 13.1904 18.8763 13.2611 18.8535 13.334C18.8353 13.3932 18.8148 13.4616 18.792 13.5391C18.7327 13.7168 18.6735 13.9128 18.6143 14.127C18.555 14.3366 18.5163 14.528 18.498 14.7012C18.4844 14.8743 18.5163 14.986 18.5938 15.0361C18.6621 15.0908 18.8717 15.0749 19.2227 14.9883C19.5781 14.8971 20.1022 14.6715 20.7949 14.3115C21.4922 13.9469 22.3923 13.3796 23.4951 12.6094V12.6162ZM29.3809 12.6162C29.3945 12.6253 29.3968 12.6413 29.3877 12.6641C29.3786 12.6868 29.3581 12.7096 29.3262 12.7324C29.3216 12.7324 29.3193 12.7324 29.3193 12.7324C29.3193 12.7324 29.3193 12.7347 29.3193 12.7393C28.1481 13.473 27.0361 14.0586 25.9834 14.4961C24.9307 14.9336 24.1217 15.1296 23.5566 15.084C23.1875 15.0612 22.9277 14.9359 22.7773 14.708C22.6087 14.3708 22.6497 13.9492 22.9004 13.4434C22.9733 13.3021 23.0531 13.1699 23.1396 13.0469C23.208 12.9466 23.2764 12.8509 23.3447 12.7598C23.6592 12.3997 23.9189 12.1377 24.124 11.9736C24.1423 11.9554 24.1582 11.9395 24.1719 11.9258C24.1764 11.9258 24.1787 11.9235 24.1787 11.9189C24.32 11.805 24.4567 11.6979 24.5889 11.5977C25.5322 10.9141 26.2227 10.6543 26.6602 10.8184C26.765 10.8639 26.8447 10.9346 26.8994 11.0303C26.9541 11.1214 26.9609 11.2308 26.9199 11.3584C26.8607 11.5179 26.7331 11.6637 26.5371 11.7959C26.3457 11.9281 26.1178 12.0443 25.8535 12.1445C25.293 12.3542 24.7666 12.5114 24.2744 12.6162C24.2152 12.6253 24.1286 12.6618 24.0146 12.7256C23.9053 12.7848 23.7891 12.876 23.666 12.999C23.6615 13.0036 23.6592 13.0059 23.6592 13.0059C23.6501 13.0195 23.6387 13.0332 23.625 13.0469C23.3561 13.3477 23.1807 13.6758 23.0986 14.0312C23.0986 14.2819 23.1921 14.4688 23.3789 14.5918C23.5658 14.7103 23.7891 14.7695 24.0488 14.7695C24.5592 14.7695 25.2725 14.5804 26.1885 14.2021C27.1045 13.8239 28.1458 13.2952 29.3125 12.6162C29.3444 12.598 29.3672 12.598 29.3809 12.6162ZM24.3359 12.3975C24.2995 12.4248 24.2767 12.4476 24.2676 12.4658C24.2585 12.484 24.279 12.4886 24.3291 12.4795C24.5798 12.4202 24.8737 12.3337 25.2109 12.2197C25.457 12.1377 25.6598 12.0511 25.8193 11.96C25.9834 11.8643 26.0518 11.7777 26.0244 11.7002C26.0244 11.7002 26.0244 11.6979 26.0244 11.6934C26.0244 11.6934 26.0221 11.6911 26.0176 11.6865C26.0176 11.682 26.0176 11.6797 26.0176 11.6797C25.9811 11.6387 25.9173 11.6204 25.8262 11.625C25.7533 11.6341 25.6667 11.6546 25.5664 11.6865C25.5618 11.6865 25.5596 11.6865 25.5596 11.6865C25.5596 11.6911 25.5596 11.6934 25.5596 11.6934C25.5459 11.6934 25.5322 11.6979 25.5186 11.707C25.5186 11.707 25.5163 11.707 25.5117 11.707C25.5117 11.707 25.5094 11.707 25.5049 11.707C25.3818 11.7526 25.2428 11.821 25.0879 11.9121C24.8464 12.0397 24.5957 12.2015 24.3359 12.3975ZM47.6807 12.6367C47.7171 12.6094 47.749 12.6003 47.7764 12.6094C47.8037 12.6185 47.8174 12.639 47.8174 12.6709C47.8174 12.6982 47.7969 12.7279 47.7559 12.7598C47.3229 13.0833 46.8945 13.4046 46.4707 13.7236C44.862 14.9359 43.3854 16.0273 42.041 16.998C40.6966 17.9733 39.5299 18.7503 38.541 19.3291C37.8301 19.7393 37.2354 20.056 36.7568 20.2793C36.2783 20.5026 35.891 20.6553 35.5947 20.7373C35.2985 20.8193 35.0638 20.8604 34.8906 20.8604C34.7311 20.8604 34.6104 20.8398 34.5283 20.7988C34.2412 20.6849 34.1182 20.4479 34.1592 20.0879C34.2275 19.7051 34.4349 19.2653 34.7812 18.7686C35.1322 18.2718 35.5195 17.7933 35.9434 17.333C36.3672 16.8727 36.7227 16.5059 37.0098 16.2324C37.7207 15.5397 38.4749 14.8698 39.2725 14.2227C39.3408 14.1634 39.3796 14.1224 39.3887 14.0996C39.4023 14.0723 39.3978 14.0563 39.375 14.0518C39.3522 14.0472 39.3249 14.0472 39.293 14.0518C39.2839 14.0563 39.277 14.0586 39.2725 14.0586C38.8122 14.1361 38.4932 14.0654 38.3154 13.8467C38.1833 13.7191 38.1423 13.4889 38.1924 13.1562C38.2425 12.8236 38.4863 12.3063 38.9238 11.6045C39.3659 10.8981 40.1064 9.92057 41.1455 8.67188C42.9821 6.47982 44.4814 4.90755 45.6436 3.95508C46.7738 3.02995 47.5713 2.71777 48.0361 3.01855C48.2458 3.15983 48.3551 3.4082 48.3643 3.76367C48.3779 4.11458 48.2663 4.5498 48.0293 5.06934C47.8516 5.42936 47.61 5.80078 47.3047 6.18359C46.9993 6.56185 46.7145 6.89909 46.4502 7.19531C46.3044 7.35938 46.1859 7.49609 46.0947 7.60547C46.0081 7.71029 45.9717 7.77181 45.9854 7.79004C46.0081 7.81283 46.0833 7.76953 46.2109 7.66016C46.3431 7.55078 46.5094 7.40267 46.71 7.21582C47.0153 6.92871 47.3457 6.63704 47.7012 6.34082C48.0612 6.0446 48.3802 5.84408 48.6582 5.73926C48.7721 5.71191 48.8496 5.74609 48.8906 5.8418C48.9316 5.93294 48.9362 6.0332 48.9043 6.14258C48.8633 6.25195 48.7949 6.34082 48.6992 6.40918C48.6035 6.47298 48.5033 6.5026 48.3984 6.49805C48.1068 6.48438 47.7992 6.59375 47.4756 6.82617C47.1566 7.05404 46.792 7.36393 46.3818 7.75586C46.1859 7.92904 46.0355 8.02474 45.9307 8.04297C45.8258 8.0612 45.7598 8.04069 45.7324 7.98145C45.7233 7.94043 45.7301 7.89258 45.7529 7.83789C45.7803 7.77865 45.8099 7.72396 45.8418 7.67383C45.8783 7.6237 45.9056 7.58724 45.9238 7.56445C46.2565 7.17708 46.5938 6.76009 46.9355 6.31348C47.2773 5.8623 47.528 5.44531 47.6875 5.0625C47.8424 4.6569 47.9085 4.35384 47.8857 4.15332C47.8675 3.9528 47.7992 3.82064 47.6807 3.75684C47.6305 3.71582 47.4619 3.73405 47.1748 3.81152C46.8923 3.889 46.5186 4.11003 46.0537 4.47461C45.4932 4.92578 44.8073 5.5319 43.9961 6.29297C43.1849 7.05404 42.2917 7.97917 41.3164 9.06836C40.5371 9.95703 39.9378 10.693 39.5186 11.2764C39.0993 11.8597 38.8122 12.3245 38.6572 12.6709C38.5068 13.0127 38.443 13.2679 38.4658 13.4365C38.4886 13.6006 38.5524 13.7054 38.6572 13.751C38.7803 13.8239 38.974 13.8376 39.2383 13.792C39.5026 13.7419 39.8809 13.5846 40.373 13.3203C40.8652 13.056 41.5101 12.6413 42.3076 12.0762C42.3714 12.026 42.4375 11.9577 42.5059 11.8711C42.6061 11.7389 42.7178 11.6364 42.8408 11.5635C42.9684 11.486 43.1097 11.5202 43.2646 11.666C43.2738 11.6706 43.2783 11.6751 43.2783 11.6797C43.2829 11.6797 43.2852 11.682 43.2852 11.6865C43.2897 11.6911 43.292 11.6934 43.292 11.6934C43.292 11.6979 43.292 11.7025 43.292 11.707C43.292 11.7116 43.2943 11.7184 43.2988 11.7275C43.3535 11.8962 43.2715 12.042 43.0527 12.165C41.0521 13.4001 39.1562 14.8835 37.3652 16.6152C36.7956 17.1712 36.2806 17.7135 35.8203 18.2422C35.36 18.7754 35.016 19.2402 34.7881 19.6367C34.5648 20.0332 34.5238 20.3066 34.665 20.457C34.7516 20.571 34.9954 20.5846 35.3965 20.498C35.7975 20.4115 36.4606 20.1198 37.3857 19.623C38.3154 19.1263 39.6097 18.3219 41.2686 17.21C42.932 16.098 45.0693 14.5736 47.6807 12.6367ZM54.4209 12.6094C54.4391 12.6003 54.4551 12.6025 54.4688 12.6162C54.4824 12.6299 54.4847 12.6481 54.4756 12.6709C54.471 12.6891 54.446 12.7096 54.4004 12.7324C53.9583 12.901 53.5163 13.0742 53.0742 13.252C52.4863 13.4889 51.9098 13.7122 51.3447 13.9219C50.7796 14.127 50.2305 14.2956 49.6973 14.4277C49.1641 14.5599 48.6582 14.626 48.1797 14.626C47.9199 14.626 47.6989 14.6009 47.5166 14.5508C47.3298 14.4961 47.2067 14.4049 47.1475 14.2773C47.1429 14.2637 47.1361 14.2523 47.127 14.2432C47.1133 14.234 47.0973 14.2363 47.0791 14.25C47.0563 14.2637 47.029 14.2933 46.9971 14.3389C45.8851 15.9476 44.7754 17.5199 43.668 19.0557C43.6361 19.1058 43.6087 19.1514 43.5859 19.1924C43.5632 19.238 43.5426 19.2744 43.5244 19.3018C43.5016 19.3291 43.472 19.3451 43.4355 19.3496C43.3353 19.3633 43.2738 19.3496 43.251 19.3086C43.2236 19.2721 43.2236 19.222 43.251 19.1582C43.2783 19.0944 43.3171 19.0283 43.3672 18.96C45.1719 16.4489 46.9401 13.8512 48.6719 11.167C50.4082 8.48275 51.8825 6.1403 53.0947 4.13965C54.307 2.13444 55.0293 0.897135 55.2617 0.427734C55.2982 0.332031 55.3324 0.265951 55.3643 0.229492C55.4007 0.188477 55.4372 0.156576 55.4736 0.133789C55.4827 0.124674 55.4941 0.11556 55.5078 0.106445C55.722 -0.0302734 55.8906 -0.0302734 56.0137 0.106445C56.1139 0.220378 56.1572 0.318359 56.1436 0.400391C56.1344 0.477865 56.0911 0.573568 56.0137 0.6875C55.9681 0.751302 55.9202 0.831055 55.8701 0.926758C55.82 1.01335 55.665 1.25488 55.4053 1.65137C55.1501 2.04329 54.8379 2.51725 54.4688 3.07324C54.0677 3.68392 53.6644 4.29915 53.2588 4.91895C52.8532 5.53418 52.5114 6.06055 52.2334 6.49805C51.4632 7.71484 50.3558 9.39421 48.9111 11.5361C48.861 11.6045 48.8245 11.666 48.8018 11.7207C48.779 11.7708 48.7858 11.7959 48.8223 11.7959C48.8587 11.7959 48.9408 11.7549 49.0684 11.6729C49.7337 11.2262 50.3558 10.8685 50.9346 10.5996C51.5179 10.3307 51.8825 10.2168 52.0283 10.2578C52.1058 10.2852 52.1582 10.3581 52.1855 10.4766C52.2174 10.5905 52.1673 10.7409 52.0352 10.9277C51.985 10.9915 51.9258 11.0394 51.8574 11.0713C51.7936 11.1032 51.7389 11.1169 51.6934 11.1123C51.6523 11.1032 51.6387 11.069 51.6523 11.0098C51.3242 11.0371 50.8867 11.1852 50.3398 11.4541C49.7975 11.723 49.2666 12.0443 48.7471 12.418C48.2321 12.7917 47.8493 13.1494 47.5986 13.4912C47.348 13.8285 47.3525 14.0837 47.6123 14.2568C47.8128 14.389 48.1569 14.4391 48.6445 14.4072C49.1367 14.3753 49.8454 14.2204 50.7705 13.9424C51.6956 13.6644 52.9124 13.2201 54.4209 12.6094ZM60.293 12.6162C60.3066 12.6253 60.3089 12.6413 60.2998 12.6641C60.2907 12.6868 60.2702 12.7096 60.2383 12.7324C60.2337 12.7324 60.2314 12.7324 60.2314 12.7324C60.2314 12.7324 60.2314 12.7347 60.2314 12.7393C59.0602 13.473 57.9482 14.0586 56.8955 14.4961C55.8428 14.9336 55.0339 15.1296 54.4688 15.084C54.0996 15.0612 53.8398 14.9359 53.6895 14.708C53.5208 14.3708 53.5618 13.9492 53.8125 13.4434C53.8854 13.3021 53.9652 13.1699 54.0518 13.0469C54.1201 12.9466 54.1885 12.8509 54.2568 12.7598C54.5713 12.3997 54.8311 12.1377 55.0361 11.9736C55.0544 11.9554 55.0703 11.9395 55.084 11.9258C55.0885 11.9258 55.0908 11.9235 55.0908 11.9189C55.2321 11.805 55.3688 11.6979 55.501 11.5977C56.4443 10.9141 57.1348 10.6543 57.5723 10.8184C57.6771 10.8639 57.7568 10.9346 57.8115 11.0303C57.8662 11.1214 57.873 11.2308 57.832 11.3584C57.7728 11.5179 57.6452 11.6637 57.4492 11.7959C57.2578 11.9281 57.0299 12.0443 56.7656 12.1445C56.2051 12.3542 55.6787 12.5114 55.1865 12.6162C55.1273 12.6253 55.0407 12.6618 54.9268 12.7256C54.8174 12.7848 54.7012 12.876 54.5781 12.999C54.5736 13.0036 54.5713 13.0059 54.5713 13.0059C54.5622 13.0195 54.5508 13.0332 54.5371 13.0469C54.2682 13.3477 54.0928 13.6758 54.0107 14.0312C54.0107 14.2819 54.1042 14.4688 54.291 14.5918C54.4779 14.7103 54.7012 14.7695 54.9609 14.7695C55.4714 14.7695 56.1846 14.5804 57.1006 14.2021C58.0166 13.8239 59.0579 13.2952 60.2246 12.6162C60.2565 12.598 60.2793 12.598 60.293 12.6162ZM55.248 12.3975C55.2116 12.4248 55.1888 12.4476 55.1797 12.4658C55.1706 12.484 55.1911 12.4886 55.2412 12.4795C55.4919 12.4202 55.7858 12.3337 56.123 12.2197C56.3691 12.1377 56.5719 12.0511 56.7314 11.96C56.8955 11.8643 56.9639 11.7777 56.9365 11.7002C56.9365 11.7002 56.9365 11.6979 56.9365 11.6934C56.9365 11.6934 56.9342 11.6911 56.9297 11.6865C56.9297 11.682 56.9297 11.6797 56.9297 11.6797C56.8932 11.6387 56.8294 11.6204 56.7383 11.625C56.6654 11.6341 56.5788 11.6546 56.4785 11.6865C56.474 11.6865 56.4717 11.6865 56.4717 11.6865C56.4717 11.6911 56.4717 11.6934 56.4717 11.6934C56.458 11.6934 56.4443 11.6979 56.4307 11.707C56.4307 11.707 56.4284 11.707 56.4238 11.707C56.4238 11.707 56.4215 11.707 56.417 11.707C56.2939 11.7526 56.1549 11.821 56 11.9121C55.7585 12.0397 55.5078 12.2015 55.248 12.3975Z" fill="black"/>
</svg>
