<svg width="72" height="32" viewBox="0 0 72 32" fill="none" xmlns="http://www.w3.org/2000/svg">
<path d="M15.6064 15.623C15.6702 15.6003 15.7113 15.6003 15.7295 15.623C15.7477 15.6458 15.7454 15.6777 15.7227 15.7188C15.6999 15.7552 15.6589 15.7871 15.5996 15.8145C14.6517 16.1836 13.3005 16.735 11.5459 17.4688C9.79134 18.2025 8.0459 18.9704 6.30957 19.7725C6.24577 19.8135 6.20703 19.8522 6.19336 19.8887C6.18424 19.9297 6.19336 19.9661 6.2207 19.998C6.4668 20.3034 6.61719 20.6178 6.67188 20.9414C6.73112 21.2695 6.67188 21.5931 6.49414 21.9121C6.38477 22.1263 6.1888 22.3382 5.90625 22.5479C5.62826 22.762 5.23177 22.9466 4.7168 23.1016C4.20182 23.2565 3.53418 23.3499 2.71387 23.3818C2.60905 23.3864 2.50651 23.3887 2.40625 23.3887C2.17839 23.3887 1.96419 23.3727 1.76367 23.3408C1.56771 23.3089 1.40592 23.2497 1.27832 23.1631C1.15527 23.0765 1.08919 22.9489 1.08008 22.7803C1.06641 22.5205 1.25326 22.2448 1.64062 21.9531C2.02799 21.666 2.65234 21.2923 3.51367 20.832C3.52734 20.8229 3.54102 20.8138 3.55469 20.8047C4.0651 20.5267 4.63249 20.2396 5.25684 19.9434C5.34342 19.8978 5.38672 19.8545 5.38672 19.8135C5.38672 19.7725 5.36849 19.7383 5.33203 19.7109C5.02669 19.4922 4.65299 19.2484 4.21094 18.9795C3.72786 18.6787 3.22656 18.3483 2.70703 17.9883C2.1875 17.6237 1.71126 17.2318 1.27832 16.8125C0.849935 16.3887 0.528646 15.9375 0.314453 15.459C0.104818 14.9759 0.070638 14.4678 0.211914 13.9346C0.444336 13.0641 1.10059 12.1504 2.18066 11.1934C3.2653 10.2363 4.81478 9.2041 6.8291 8.09668C9.52702 6.61556 11.9059 5.73372 13.9658 5.45117C15.9391 5.21419 17.1696 5.57194 17.6572 6.52441C17.8031 6.78874 17.8258 7.15104 17.7256 7.61133C17.6299 8.07161 17.3451 8.67318 16.8711 9.41602C16.4336 10.1178 15.8571 10.8128 15.1416 11.501C14.4261 12.1846 13.4736 12.957 12.2842 13.8184C10.9443 14.7799 9.85286 15.4681 9.00977 15.8828C8.17122 16.2975 7.55371 16.5072 7.15723 16.5117C6.7653 16.5163 6.56706 16.3796 6.5625 16.1016C6.58073 15.5957 6.91113 14.8939 7.55371 13.9961C8.20085 13.0983 8.99609 12.18 9.93945 11.2412C10.8874 10.2979 11.8216 9.50716 12.7422 8.86914C12.847 8.80078 12.9473 8.77116 13.043 8.78027C13.1432 8.78939 13.2184 8.83268 13.2686 8.91016C13.3005 8.9694 13.3187 9.05599 13.3232 9.16992C13.3324 9.2793 13.3232 9.38184 13.2959 9.47754C13.2686 9.57324 13.2184 9.63021 13.1455 9.64844C12.749 9.7168 12.2773 9.94694 11.7305 10.3389C11.1882 10.7308 10.6413 11.1888 10.0898 11.7129C9.54297 12.237 9.06445 12.7314 8.6543 13.1963C7.97982 13.9574 7.48307 14.5977 7.16406 15.1172C6.84961 15.6367 6.76302 15.9762 6.9043 16.1357C6.99544 16.2223 7.25065 16.2155 7.66992 16.1152C8.08919 16.0104 8.67253 15.7552 9.41992 15.3496C10.1719 14.944 11.0856 14.3311 12.1611 13.5107C13.5739 12.4124 14.654 11.4349 15.4014 10.5781C16.1488 9.7168 16.6318 8.98535 16.8506 8.38379C17.0693 7.78223 17.0944 7.3151 16.9258 6.98242C16.543 6.27148 15.5199 6.014 13.8564 6.20996C12.9085 6.33301 11.8444 6.59277 10.6641 6.98926C9.48828 7.38574 8.26693 7.91895 7 8.58887C5.21354 9.5459 3.77344 10.4756 2.67969 11.3779C1.58594 12.2757 0.929688 13.0869 0.710938 13.8115C0.569661 14.3675 0.603841 14.8665 0.813477 15.3086C1.02311 15.7507 1.33757 16.1585 1.75684 16.5322C2.18066 16.9059 2.64095 17.2705 3.1377 17.626C3.32454 17.7673 3.51139 17.9085 3.69824 18.0498C3.72559 18.068 3.80306 18.1227 3.93066 18.2139C4.15397 18.3643 4.43652 18.5602 4.77832 18.8018C5.12012 19.0433 5.43001 19.2734 5.70801 19.4922C5.7946 19.5605 5.87435 19.5902 5.94727 19.5811C6.02018 19.5719 6.08626 19.5514 6.14551 19.5195C6.14551 19.5195 6.14779 19.5195 6.15234 19.5195C7.95703 18.6947 9.75944 17.9245 11.5596 17.209C13.3597 16.4889 14.7087 15.9603 15.6064 15.623ZM6.21387 21.2217C6.30046 20.8936 6.1888 20.554 5.87891 20.2031C5.77865 20.0938 5.65332 20.0801 5.50293 20.1621C4.78288 20.5085 4.1403 20.8366 3.5752 21.1465C2.72298 21.6113 2.15104 21.9759 1.85938 22.2402C1.85482 22.2402 1.85026 22.2425 1.8457 22.2471C1.80924 22.2835 1.76823 22.3291 1.72266 22.3838C1.68164 22.443 1.65885 22.5068 1.6543 22.5752C1.6543 22.6481 1.69531 22.7233 1.77734 22.8008C1.91862 22.9329 2.28092 22.9785 2.86426 22.9375C3.66178 22.8828 4.37044 22.7279 4.99023 22.4727C5.61003 22.2174 6.0179 21.8005 6.21387 21.2217ZM16.7002 14.5635C16.6273 14.5544 16.5954 14.5247 16.6045 14.4746C16.6136 14.4245 16.6341 14.3652 16.666 14.2969C16.6979 14.2422 16.7207 14.1898 16.7344 14.1396C16.7663 14.0257 16.8187 13.9346 16.8916 13.8662C16.9691 13.7933 17.0625 13.7568 17.1719 13.7568C17.2493 13.7568 17.3177 13.7637 17.377 13.7773C17.4362 13.791 17.4749 13.8275 17.4932 13.8867C17.516 13.946 17.5068 14.0371 17.4658 14.1602C17.3929 14.3379 17.2767 14.4541 17.1172 14.5088C16.9577 14.5635 16.8187 14.5817 16.7002 14.5635ZM19.9131 15.623C19.9632 15.5866 19.9974 15.5752 20.0156 15.5889C20.0384 15.6025 20.043 15.6276 20.0293 15.6641C20.0156 15.696 19.9883 15.7279 19.9473 15.7598C19.4414 16.1061 18.8809 16.4821 18.2656 16.8877C17.6504 17.2933 17.0465 17.6738 16.4541 18.0293C15.8662 18.3802 15.3581 18.6468 14.9297 18.8291C14.4967 19.0114 14.2142 19.0479 14.082 18.9385C13.9316 18.779 13.902 18.5557 13.9932 18.2686C14.0798 17.9814 14.2438 17.6533 14.4854 17.2842C14.7223 16.9105 14.9889 16.5186 15.2852 16.1084C15.3307 16.0446 15.3717 15.9876 15.4082 15.9375C15.4492 15.8783 15.488 15.8236 15.5244 15.7734C15.5609 15.7233 15.5996 15.6663 15.6406 15.6025C15.6908 15.5387 15.7796 15.4886 15.9072 15.4521C16.0348 15.4157 16.1602 15.3997 16.2832 15.4043C16.4062 15.4043 16.486 15.4316 16.5225 15.4863C16.5544 15.5456 16.5566 15.6003 16.5293 15.6504C16.502 15.696 16.4587 15.7438 16.3994 15.7939C16.363 15.8304 16.3242 15.8714 16.2832 15.917C16.265 15.9352 16.2262 15.974 16.167 16.0332C16.0029 16.2018 15.7751 16.4525 15.4834 16.7852C15.1872 17.1133 14.9274 17.4482 14.7041 17.79C14.4808 18.1318 14.3988 18.3984 14.458 18.5898C14.5583 18.7402 15.0277 18.5967 15.8662 18.1592C16.7048 17.7217 18.0537 16.8763 19.9131 15.623ZM29.9824 15.7393C28.752 16.3727 27.5443 17.0358 26.3594 17.7285C26.1042 17.8789 25.9287 18.0088 25.833 18.1182C25.7373 18.2275 25.6781 18.3278 25.6553 18.4189C25.6507 18.4326 25.6462 18.4486 25.6416 18.4668C25.637 18.4805 25.6325 18.4919 25.6279 18.501C25.6234 18.5192 25.6188 18.5374 25.6143 18.5557C25.6143 18.5557 25.6143 18.5579 25.6143 18.5625C25.6051 18.5807 25.5983 18.599 25.5938 18.6172C25.5846 18.6491 25.5755 18.681 25.5664 18.7129C24.3861 22.5319 22.7227 25.6423 20.5762 28.0439C18.7624 30.0218 16.9714 31.1976 15.2031 31.5713C14.9434 31.6169 14.6973 31.6396 14.4648 31.6396C13.9362 31.6396 13.5055 31.5189 13.1729 31.2773C12.8356 31.0358 12.626 30.6895 12.5439 30.2383C12.4209 29.5592 12.6807 28.7048 13.3232 27.6748C13.9658 26.6449 15.0755 25.4463 16.6523 24.0791C18.2246 22.7119 20.3438 21.1807 23.0098 19.4854C23.1191 19.4215 23.2262 19.3555 23.3311 19.2871C23.4723 19.2005 23.6113 19.1162 23.748 19.0342C24.0078 18.8792 24.2676 18.7243 24.5273 18.5693C24.7005 18.4645 24.8145 18.3734 24.8691 18.2959C24.9284 18.2184 24.9626 18.1546 24.9717 18.1045C25.2223 17.0654 25.3158 16.3044 25.252 15.8213C25.1882 15.3382 25.0583 15.0443 24.8623 14.9395C24.6299 14.8027 24.3633 14.764 24.0625 14.8232C23.7663 14.8825 23.4609 14.9964 23.1465 15.165C22.8366 15.3337 22.5495 15.516 22.2852 15.7119C22.1439 15.8167 21.9684 15.9808 21.7588 16.2041C21.5492 16.4274 21.3464 16.6598 21.1504 16.9014C20.8132 17.3161 20.5033 17.6602 20.2207 17.9336C19.9427 18.2025 19.6715 18.3415 19.4072 18.3506C19.4027 18.3506 19.4004 18.3506 19.4004 18.3506C19.3958 18.3506 19.3936 18.3506 19.3936 18.3506C19.1201 18.346 18.9447 18.1751 18.8672 17.8379C18.7852 17.3594 18.9059 16.8809 19.2295 16.4023C19.5531 15.9193 19.9609 15.5182 20.4531 15.1992C21.2188 14.7116 21.8727 14.5817 22.415 14.8096C22.4743 14.8415 22.5176 14.8848 22.5449 14.9395C22.5586 14.9577 22.5768 14.9645 22.5996 14.96C22.627 14.9554 22.6543 14.944 22.6816 14.9258C22.709 14.9076 22.734 14.8916 22.7568 14.8779C23.1761 14.5726 23.6159 14.3584 24.0762 14.2354C24.541 14.1123 24.9899 14.1579 25.4229 14.3721C26.1383 14.7731 26.2887 15.8441 25.874 17.585C25.8604 17.6624 25.8626 17.7103 25.8809 17.7285C25.8991 17.7467 25.9287 17.749 25.9697 17.7354C26.0107 17.7171 26.0563 17.6943 26.1064 17.667C27.3369 16.9788 28.6243 16.293 29.9688 15.6094C29.9915 15.5957 30.0098 15.5957 30.0234 15.6094C30.0417 15.623 30.0485 15.6436 30.0439 15.6709C30.0439 15.6937 30.0234 15.7165 29.9824 15.7393ZM21.5879 15.8896H21.5811C21.6494 15.8213 21.6904 15.7666 21.7041 15.7256C21.7223 15.68 21.7269 15.6481 21.7178 15.6299C21.7087 15.6071 21.695 15.5911 21.6768 15.582C21.54 15.5182 21.3874 15.5091 21.2188 15.5547C21.0501 15.5957 20.902 15.6527 20.7744 15.7256C20.7288 15.7484 20.6878 15.7712 20.6514 15.7939C20.6149 15.8076 20.5762 15.8281 20.5352 15.8555C20.2936 15.9967 20.0521 16.2178 19.8105 16.5186C19.569 16.8148 19.4049 17.1064 19.3184 17.3936C19.2272 17.6761 19.291 17.863 19.5098 17.9541C19.7376 17.9359 19.9906 17.7718 20.2686 17.4619C20.5465 17.152 20.7767 16.8717 20.959 16.6211C21.0046 16.5573 21.0433 16.5072 21.0752 16.4707C21.1891 16.3203 21.36 16.1266 21.5879 15.8896ZM24.7529 18.8906C24.7712 18.8223 24.7757 18.7744 24.7666 18.7471C24.7575 18.7197 24.7415 18.7083 24.7188 18.7129C24.696 18.7129 24.6663 18.722 24.6299 18.7402C24.2243 18.9863 23.8369 19.2233 23.4678 19.4512C23.4587 19.4603 23.4495 19.4671 23.4404 19.4717C21.5947 20.6247 19.8994 21.8164 18.3545 23.0469C16.8096 24.2773 15.5814 25.403 14.6699 26.4238C13.3301 27.9505 12.79 29.2288 13.0498 30.2588C13.141 30.6325 13.3757 30.9036 13.7539 31.0723C14.1322 31.2409 14.597 31.2773 15.1484 31.1816C15.6908 31.0905 16.3652 30.8148 17.1719 30.3545C17.974 29.8942 18.833 29.1924 19.749 28.249C20.665 27.3102 21.5583 26.0729 22.4287 24.5371C23.2992 23.0059 24.0739 21.1237 24.7529 18.8906ZM38.2402 15.623C38.2585 15.6048 38.2744 15.598 38.2881 15.6025C38.3063 15.6025 38.3154 15.6117 38.3154 15.6299C38.3154 15.6436 38.304 15.6618 38.2812 15.6846C36.9232 16.8102 35.7679 17.6283 34.8154 18.1387C33.8675 18.6491 33.152 18.7858 32.6689 18.5488C32.3545 18.3802 32.1699 18.0863 32.1152 17.667C32.0651 17.2477 32.1517 16.7396 32.375 16.1426C32.416 16.0378 32.4616 15.9329 32.5117 15.8281C32.5983 15.6504 32.6598 15.4863 32.6963 15.3359C32.7054 15.2812 32.694 15.2516 32.6621 15.2471C32.6348 15.238 32.5983 15.2448 32.5527 15.2676C32.5072 15.2858 32.4639 15.3063 32.4229 15.3291C32.0811 15.5661 31.6436 15.9284 31.1104 16.416C30.5771 16.9036 30.0781 17.3708 29.6133 17.8174C29.153 18.2594 28.8522 18.5374 28.7109 18.6514C28.5924 18.7516 28.4717 18.8268 28.3486 18.877C28.2256 18.9225 28.139 18.9248 28.0889 18.8838C28.0342 18.8382 28.0501 18.7266 28.1367 18.5488C28.1458 18.5306 28.2415 18.3665 28.4238 18.0566C28.6016 17.7422 28.8271 17.3639 29.1006 16.9219C29.374 16.4753 29.6543 16.0423 29.9414 15.623C30.0098 15.5273 30.0895 15.4704 30.1807 15.4521C30.2764 15.4294 30.3698 15.4385 30.4609 15.4795C30.5521 15.516 30.6068 15.5706 30.625 15.6436C30.6478 15.7119 30.6204 15.8122 30.543 15.9443C30.4564 16.0719 30.2627 16.3112 29.9619 16.6621C29.5973 17.0905 29.2305 17.5462 28.8613 18.0293C28.8249 18.084 28.793 18.1364 28.7656 18.1865C28.7337 18.2321 28.7155 18.2686 28.7109 18.2959C28.7018 18.3232 28.7155 18.3301 28.752 18.3164C28.7884 18.2982 28.8545 18.248 28.9502 18.166C29.2327 17.9108 29.5791 17.585 29.9893 17.1885C30.4176 16.7783 30.8551 16.3682 31.3018 15.958C31.7529 15.5433 32.154 15.2038 32.5049 14.9395C32.8558 14.6706 33.1019 14.5521 33.2432 14.584C33.4665 14.6478 33.5599 14.7936 33.5234 15.0215C33.487 15.2493 33.3275 15.6413 33.0449 16.1973C32.8945 16.5117 32.7829 16.833 32.71 17.1611C32.6416 17.4847 32.6279 17.765 32.6689 18.002C32.7145 18.2344 32.833 18.3711 33.0244 18.4121C33.471 18.4714 33.9723 18.3734 34.5283 18.1182C35.0889 17.863 35.6631 17.5257 36.251 17.1064C36.8434 16.6872 37.4154 16.2611 37.9668 15.8281C38.0579 15.7598 38.1491 15.6914 38.2402 15.623ZM69.5283 6.27832C69.583 6.39681 69.5967 6.55404 69.5693 6.75C69.5465 6.94596 69.4326 7.18066 69.2275 7.4541C69.1501 7.5498 69.0589 7.61361 68.9541 7.64551C68.8493 7.67741 68.7536 7.67057 68.667 7.625C68.4984 7.5293 68.4824 7.38802 68.6191 7.20117C68.7057 7.09635 68.7832 7.01888 68.8516 6.96875C68.9017 6.93229 68.9427 6.89583 68.9746 6.85938C69.0065 6.82292 69.0247 6.77507 69.0293 6.71582C69.0521 6.57454 68.8926 6.42415 68.5508 6.26465C68.209 6.10514 67.6006 5.97754 66.7256 5.88184C65.8506 5.78613 64.6292 5.76335 63.0615 5.81348C60.5231 5.89551 56.9365 6.19173 52.3018 6.70215C52.2243 6.71126 52.1582 6.73405 52.1035 6.77051C52.0488 6.80697 52.0101 6.84342 51.9873 6.87988C51.6136 7.34017 51.2148 7.83236 50.791 8.35645C50.3079 8.95345 49.7884 9.59603 49.2324 10.2842C47.7878 12.3167 46.5277 14.11 45.4521 15.6641C44.3766 17.2181 43.4971 18.5557 42.8135 19.6768C42.1117 20.8434 41.6035 21.7572 41.2891 22.418C40.9746 23.0788 40.7832 23.5618 40.7148 23.8672C40.6465 24.1771 40.6237 24.3867 40.6465 24.4961C40.651 24.5326 40.6602 24.5758 40.6738 24.626C40.6921 24.6761 40.7217 24.7148 40.7627 24.7422C40.8083 24.7695 40.8766 24.7695 40.9678 24.7422C41.2549 24.6465 41.3506 24.7217 41.2549 24.9678C41.2139 25.0771 41.1478 25.1683 41.0566 25.2412C40.9701 25.3141 40.8743 25.3506 40.7695 25.3506C40.61 25.3506 40.487 25.3141 40.4004 25.2412C40.3184 25.1729 40.2568 25.0544 40.2158 24.8857C40.1383 24.6579 40.1657 24.3001 40.2979 23.8125C40.4346 23.3294 40.7285 22.6413 41.1797 21.748C41.6309 20.8594 42.2985 19.6995 43.1826 18.2686C44.0713 16.833 45.2288 15.0511 46.6553 12.9229C46.6781 12.8955 46.6963 12.8682 46.71 12.8408C46.7236 12.8089 46.7305 12.7861 46.7305 12.7725C46.735 12.7542 46.7259 12.7542 46.7031 12.7725C46.6803 12.7861 46.6393 12.8249 46.5801 12.8887C45.1947 14.4382 43.9163 15.737 42.7451 16.7852C41.5785 17.8333 40.7194 18.3984 40.168 18.4805C39.9355 18.4941 39.7555 18.4463 39.6279 18.3369C39.2588 18.0361 39.1973 17.5052 39.4434 16.7441H39.4365C39.4639 16.6712 39.4775 16.6211 39.4775 16.5938C39.4775 16.5618 39.4684 16.5459 39.4502 16.5459C39.4365 16.5413 39.4183 16.5482 39.3955 16.5664C39.3727 16.5801 39.3522 16.596 39.334 16.6143C39.1152 16.8148 38.9238 16.9811 38.7598 17.1133C38.6003 17.2454 38.4385 17.3639 38.2744 17.4688C37.9964 17.651 37.7344 17.7855 37.4883 17.8721C37.2376 17.9541 37.0371 17.9609 36.8867 17.8926C36.7728 17.8288 36.7318 17.7308 36.7637 17.5986C36.791 17.4619 36.8503 17.3229 36.9414 17.1816C37.0326 17.0358 37.1123 16.9173 37.1807 16.8262C37.1852 16.8216 37.1898 16.8148 37.1943 16.8057C37.4769 16.432 37.8825 15.974 38.4111 15.4316C38.7894 15.0397 39.1494 14.723 39.4912 14.4814C39.8376 14.2354 40.1315 14.1693 40.373 14.2832C40.4824 14.3516 40.5485 14.4518 40.5713 14.584C40.5941 14.7116 40.585 14.8574 40.5439 15.0215C40.5394 15.0397 40.5394 15.0602 40.5439 15.083C40.5485 15.1058 40.5667 15.124 40.5986 15.1377C40.6579 15.1787 40.6761 15.2357 40.6533 15.3086C40.6351 15.3815 40.6032 15.459 40.5576 15.541C40.5576 15.5456 40.5553 15.5479 40.5508 15.5479C40.1543 16.3363 39.9128 16.9219 39.8262 17.3047C39.7396 17.6829 39.7373 17.9154 39.8193 18.002C40.1247 18.3711 40.9974 17.9541 42.4375 16.751C43.8776 15.5433 45.7507 13.5791 48.0566 10.8584C48.8314 9.7373 49.6768 8.51823 50.5928 7.20117C50.6794 7.07357 50.7021 6.98926 50.6611 6.94824C50.6201 6.90723 50.5426 6.89583 50.4287 6.91406C50.1826 6.94141 49.932 6.96875 49.6768 6.99609C46.1312 7.42448 43.6953 7.61361 42.3691 7.56348C41.5078 7.52702 40.9176 7.4541 40.5986 7.34473C40.2796 7.23079 40.1178 7.07585 40.1133 6.87988C40.0996 6.65202 40.1725 6.4401 40.332 6.24414C40.4961 6.04362 40.6829 5.87044 40.8926 5.72461C41.1068 5.57422 41.2822 5.45801 41.4189 5.37598C41.5238 5.31673 41.624 5.29622 41.7197 5.31445C41.8154 5.32812 41.8838 5.37826 41.9248 5.46484C41.9613 5.55599 41.9567 5.65169 41.9111 5.75195C41.8701 5.85221 41.7972 5.93424 41.6924 5.99805C41.6696 6.01172 41.6468 6.02539 41.624 6.03906C41.5739 6.06641 41.4987 6.12337 41.3984 6.20996C41.2982 6.29199 41.2253 6.39225 41.1797 6.51074C41.1387 6.62923 41.1751 6.75 41.2891 6.87305C41.3665 6.95508 41.5033 7.02572 41.6992 7.08496C41.8952 7.14421 42.1732 7.18066 42.5332 7.19434C44.0918 7.23079 46.4844 7.05762 49.7109 6.6748C49.9798 6.64746 50.2441 6.61784 50.5039 6.58594C50.75 6.54948 50.9368 6.48796 51.0645 6.40137C51.1966 6.31022 51.2832 6.23047 51.3242 6.16211C51.3333 6.15299 51.3402 6.14388 51.3447 6.13477C51.3447 6.13021 51.347 6.12793 51.3516 6.12793C52.263 4.82454 53.154 3.5804 54.0244 2.39551C54.8994 1.20605 55.4873 0.472331 55.7881 0.194336C55.9111 0.0986328 56.0251 0.0507812 56.1299 0.0507812C56.2347 0.046224 56.3145 0.0712891 56.3691 0.125977C56.4648 0.203451 56.4808 0.335612 56.417 0.522461C56.4079 0.586263 56.3828 0.645508 56.3418 0.700195C56.2415 0.900716 56.0661 1.2015 55.8154 1.60254C55.3779 2.2998 54.8333 3.10872 54.1816 4.0293C53.7168 4.67643 53.1449 5.42383 52.4658 6.27148H52.4727C52.4408 6.3125 52.4362 6.33757 52.459 6.34668C52.4818 6.35579 52.516 6.35579 52.5615 6.34668C57.0824 5.81348 60.5983 5.49447 63.1094 5.38965C64.8229 5.3304 66.1309 5.33724 67.0332 5.41016C67.9355 5.47852 68.5622 5.59245 68.9131 5.75195C69.264 5.9069 69.4691 6.08236 69.5283 6.27832ZM39.5527 15.8076C39.6257 15.6891 39.6895 15.5706 39.7441 15.4521C39.7988 15.3337 39.8079 15.2539 39.7715 15.2129C39.7715 15.2083 39.7715 15.2061 39.7715 15.2061C39.7669 15.2061 39.7601 15.2038 39.751 15.1992C39.6325 15.1901 39.4206 15.3018 39.1152 15.5342C38.8099 15.762 38.4909 16.0355 38.1582 16.3545C37.8255 16.6735 37.5635 16.9561 37.3721 17.2021C37.3721 17.2067 37.3721 17.209 37.3721 17.209C37.3675 17.2135 37.3607 17.2204 37.3516 17.2295C37.3197 17.2705 37.2832 17.3252 37.2422 17.3936C37.1966 17.4619 37.1738 17.5212 37.1738 17.5713C37.1738 17.6214 37.2285 17.6396 37.3379 17.626C37.5931 17.585 37.903 17.446 38.2676 17.209C38.6322 16.972 38.9808 16.6917 39.3135 16.3682C39.4046 16.2633 39.4479 16.1836 39.4434 16.1289C39.4661 16.0104 39.5026 15.9033 39.5527 15.8076ZM51.8164 6.83887C51.862 6.77962 51.8506 6.75228 51.7822 6.75684C51.7503 6.76595 51.7184 6.78874 51.6865 6.8252C51.6546 6.8571 51.6273 6.89128 51.6045 6.92773C51.6045 6.93229 51.6022 6.93457 51.5977 6.93457C51.1556 7.56348 50.7249 8.17415 50.3057 8.7666C50.8252 8.12858 51.3288 7.486 51.8164 6.83887ZM52.2061 6.31934C53.3499 4.77441 54.2546 3.45736 54.9199 2.36816C54.3001 3.15658 53.3408 4.46908 52.042 6.30566C52.0329 6.31934 52.0238 6.33529 52.0146 6.35352C52.0055 6.37174 52.001 6.38542 52.001 6.39453C52.0055 6.40365 52.0192 6.4082 52.042 6.4082C52.042 6.4082 52.0443 6.4082 52.0488 6.4082C52.0853 6.40365 52.1149 6.39681 52.1377 6.3877C52.1605 6.37402 52.1833 6.35124 52.2061 6.31934ZM58.8574 15.623C58.8939 15.6048 58.9235 15.6025 58.9463 15.6162C58.9691 15.6253 58.9759 15.6458 58.9668 15.6777C58.9577 15.7051 58.9258 15.7347 58.8711 15.7666C57.7135 16.4684 56.6038 17.1156 55.542 17.708C54.4847 18.2959 53.5755 18.7266 52.8145 19C52.0534 19.278 51.5407 19.2939 51.2764 19.0479C51.0986 18.8519 51.0417 18.6081 51.1055 18.3164C51.1693 18.0247 51.2878 17.6829 51.4609 17.291C51.5247 17.1361 51.5908 16.9697 51.6592 16.792C51.6911 16.7008 51.707 16.6393 51.707 16.6074C51.707 16.5755 51.6934 16.5641 51.666 16.5732C51.6432 16.5778 51.6136 16.596 51.5771 16.6279C51.5452 16.6553 51.5111 16.6849 51.4746 16.7168C51.4746 16.7214 51.4746 16.7236 51.4746 16.7236C50.4492 17.749 49.6198 18.4896 48.9863 18.9453C48.3529 19.3965 47.8014 19.5924 47.332 19.5332C47.2135 19.5195 47.0973 19.4785 46.9834 19.4102C46.8649 19.3464 46.7874 19.2279 46.751 19.0547C46.7145 18.8861 46.7601 18.6377 46.8877 18.3096C47.1475 17.6533 47.43 17.0632 47.7354 16.5391C48.0407 16.015 48.3301 15.5456 48.6035 15.1309C48.6309 15.0898 48.6582 15.0488 48.6855 15.0078C48.9271 14.625 49.0843 14.3652 49.1572 14.2285C49.1572 14.224 49.1572 14.2171 49.1572 14.208C49.1572 14.1488 49.1641 14.0895 49.1777 14.0303C49.196 13.9665 49.2324 13.9095 49.2871 13.8594C49.3919 13.7865 49.515 13.75 49.6562 13.75C49.7975 13.75 49.8978 13.7956 49.957 13.8867C50.0254 14.0143 50.0094 14.1784 49.9092 14.3789C49.8135 14.5749 49.6107 14.8848 49.3008 15.3086C49.0957 15.5957 48.8359 15.9854 48.5215 16.4775C48.207 16.9697 47.929 17.4482 47.6875 17.9131C47.446 18.3734 47.3343 18.7015 47.3525 18.8975C47.3662 19.0296 47.446 19.1162 47.5918 19.1572C47.7331 19.1982 47.9769 19.1299 48.3232 18.9521C48.6742 18.7744 49.1663 18.4258 49.7998 17.9062C50.4333 17.3867 51.2467 16.6348 52.2402 15.6504C52.2949 15.6003 52.3656 15.5547 52.4521 15.5137C52.5433 15.4727 52.6162 15.4658 52.6709 15.4932C52.7256 15.5205 52.7301 15.6117 52.6846 15.7666C52.557 16.154 52.4202 16.5322 52.2744 16.9014C52.0921 17.348 51.9554 17.7399 51.8643 18.0771C51.7731 18.4098 51.7959 18.64 51.9326 18.7676C52.0238 18.8587 52.3086 18.8359 52.7871 18.6992C53.2656 18.5579 53.9948 18.2458 54.9746 17.7627C55.9544 17.2751 57.2487 16.5618 58.8574 15.623ZM65.3516 15.7803C65.3516 15.7848 65.3516 15.7871 65.3516 15.7871C64.9095 16.0788 64.4857 16.3613 64.0801 16.6348C62.6491 17.6237 61.5234 18.3369 60.7031 18.7744C60.0332 19.1117 59.5387 19.2803 59.2197 19.2803C59.0374 19.2803 58.903 19.2279 58.8164 19.123C58.6979 18.9863 58.682 18.7995 58.7686 18.5625C58.7686 18.5579 58.7686 18.5557 58.7686 18.5557C58.7686 18.5511 58.7686 18.5488 58.7686 18.5488C58.8369 18.3711 58.944 18.1888 59.0898 18.002C59.2402 17.8151 59.3838 17.651 59.5205 17.5098C59.5889 17.4414 59.6595 17.3662 59.7324 17.2842C59.7507 17.266 59.7643 17.2523 59.7734 17.2432C59.8737 17.1338 59.958 17.0312 60.0264 16.9355C60.0993 16.8353 60.1403 16.7555 60.1494 16.6963C60.1585 16.5778 60.1038 16.4844 59.9854 16.416C59.8669 16.3477 59.7256 16.2861 59.5615 16.2314C59.361 16.1676 59.181 16.0856 59.0215 15.9854C58.8665 15.8805 58.7959 15.7279 58.8096 15.5273C58.8506 14.9987 59.2653 14.5156 60.0537 14.0781L60.0674 14.0713C60.1768 14.0166 60.277 14.0007 60.3682 14.0234C60.4639 14.0417 60.5299 14.0941 60.5664 14.1807C60.5983 14.2809 60.5915 14.4108 60.5459 14.5703C60.5049 14.7253 60.4206 14.8438 60.293 14.9258L60.2793 14.9326C60.1745 14.9919 60.0788 15.042 59.9922 15.083C59.8555 15.1423 59.7438 15.2038 59.6572 15.2676C59.5706 15.3314 59.516 15.4134 59.4932 15.5137C59.4886 15.5911 59.6504 15.7074 59.9785 15.8623C60.4707 16.1084 60.71 16.4069 60.6963 16.7578C60.6735 16.9629 60.5664 17.1748 60.375 17.3936C60.1882 17.6123 59.9854 17.8242 59.7666 18.0293C59.5843 18.1979 59.4316 18.3529 59.3086 18.4941C59.1901 18.6309 59.14 18.7425 59.1582 18.8291C59.3496 19.0889 59.9671 18.9294 61.0107 18.3506C62.0544 17.7673 63.499 16.8581 65.3447 15.623C65.3447 15.623 65.347 15.623 65.3516 15.623C65.3789 15.6048 65.404 15.6003 65.4268 15.6094C65.4541 15.6185 65.4655 15.639 65.4609 15.6709C65.4564 15.6982 65.4199 15.7347 65.3516 15.7803ZM71.2578 15.6162C71.2715 15.6253 71.2738 15.6413 71.2646 15.6641C71.2555 15.6868 71.235 15.7096 71.2031 15.7324C71.1986 15.7324 71.1963 15.7324 71.1963 15.7324C71.1963 15.7324 71.1963 15.7347 71.1963 15.7393C70.0251 16.473 68.9131 17.0586 67.8604 17.4961C66.8076 17.9336 65.9987 18.1296 65.4336 18.084C65.0645 18.0612 64.8047 17.9359 64.6543 17.708C64.4857 17.3708 64.5267 16.9492 64.7773 16.4434C64.8503 16.3021 64.93 16.1699 65.0166 16.0469C65.085 15.9466 65.1533 15.8509 65.2217 15.7598C65.5361 15.3997 65.7959 15.1377 66.001 14.9736C66.0192 14.9554 66.0352 14.9395 66.0488 14.9258C66.0534 14.9258 66.0557 14.9235 66.0557 14.9189C66.1969 14.805 66.3337 14.6979 66.4658 14.5977C67.4092 13.9141 68.0996 13.6543 68.5371 13.8184C68.6419 13.8639 68.7217 13.9346 68.7764 14.0303C68.8311 14.1214 68.8379 14.2308 68.7969 14.3584C68.7376 14.5179 68.61 14.6637 68.4141 14.7959C68.2227 14.9281 67.9948 15.0443 67.7305 15.1445C67.1699 15.3542 66.6436 15.5114 66.1514 15.6162C66.0921 15.6253 66.0055 15.6618 65.8916 15.7256C65.7822 15.7848 65.666 15.876 65.543 15.999C65.5384 16.0036 65.5361 16.0059 65.5361 16.0059C65.527 16.0195 65.5156 16.0332 65.502 16.0469C65.2331 16.3477 65.0576 16.6758 64.9756 17.0312C64.9756 17.2819 65.069 17.4688 65.2559 17.5918C65.4427 17.7103 65.666 17.7695 65.9258 17.7695C66.4362 17.7695 67.1494 17.5804 68.0654 17.2021C68.9814 16.8239 70.0228 16.2952 71.1895 15.6162C71.2214 15.598 71.2441 15.598 71.2578 15.6162ZM66.2129 15.3975C66.1764 15.4248 66.1536 15.4476 66.1445 15.4658C66.1354 15.484 66.1559 15.4886 66.2061 15.4795C66.4567 15.4202 66.7507 15.3337 67.0879 15.2197C67.334 15.1377 67.5368 15.0511 67.6963 14.96C67.8604 14.8643 67.9287 14.7777 67.9014 14.7002C67.9014 14.7002 67.9014 14.6979 67.9014 14.6934C67.9014 14.6934 67.8991 14.6911 67.8945 14.6865C67.8945 14.682 67.8945 14.6797 67.8945 14.6797C67.8581 14.6387 67.7943 14.6204 67.7031 14.625C67.6302 14.6341 67.5436 14.6546 67.4434 14.6865C67.4388 14.6865 67.4365 14.6865 67.4365 14.6865C67.4365 14.6911 67.4365 14.6934 67.4365 14.6934C67.4229 14.6934 67.4092 14.6979 67.3955 14.707C67.3955 14.707 67.3932 14.707 67.3887 14.707C67.3887 14.707 67.3864 14.707 67.3818 14.707C67.2588 14.7526 67.1198 14.821 66.9648 14.9121C66.7233 15.0397 66.4727 15.2015 66.2129 15.3975Z" fill="black"/>
</svg>
