<svg width="62" height="22" viewBox="0 0 62 22" fill="none" xmlns="http://www.w3.org/2000/svg">
<path d="M15.791 13.6367C15.8184 13.6094 15.8525 13.6003 15.8936 13.6094C15.9346 13.6139 15.9596 13.6367 15.9688 13.6777C15.9824 13.7142 15.9574 13.7666 15.8936 13.835C14.7816 14.9743 13.6855 16.0202 12.6055 16.9727C11.5299 17.9251 10.5729 18.668 9.73438 19.2012C9.00521 19.6432 8.27376 19.9326 7.54004 20.0693C6.80632 20.2061 6.21842 20.1559 5.77637 19.9189C5.0472 19.4951 4.63021 18.8115 4.52539 17.8682C4.42057 16.9294 4.59603 15.7536 5.05176 14.3408C5.07454 14.2542 5.07682 14.2087 5.05859 14.2041C5.04492 14.195 5.01758 14.2223 4.97656 14.2861C4.92643 14.3727 4.87402 14.4593 4.81934 14.5459C4.78743 14.596 4.75553 14.6484 4.72363 14.7031C4.02637 15.8379 3.37467 16.8815 2.76855 17.834C2.25814 18.6315 1.72266 19.4814 1.16211 20.3838C1.02539 20.6117 0.913737 20.8031 0.827148 20.958C0.772461 21.0719 0.717773 21.1882 0.663086 21.3066H0.642578C0.583333 21.4342 0.546875 21.5186 0.533203 21.5596C0.528646 21.5687 0.526367 21.5755 0.526367 21.5801C0.494466 21.6849 0.448893 21.7692 0.389648 21.833C0.334961 21.8968 0.257487 21.9287 0.157227 21.9287C0.157227 21.9287 0.157227 21.931 0.157227 21.9355C0.157227 21.9355 0.157227 21.9333 0.157227 21.9287C0.120768 21.9287 0.0865885 21.9219 0.0546875 21.9082C0.0273438 21.8991 0.0113932 21.8786 0.00683594 21.8467C0.00227865 21.8148 0.0227865 21.7669 0.0683594 21.7031C0.0729167 21.694 0.077474 21.6803 0.0820312 21.6621C0.0911458 21.6348 0.113932 21.5778 0.150391 21.4912C0.191406 21.4092 0.264323 21.277 0.369141 21.0947C0.478516 20.9124 0.635742 20.6595 0.84082 20.3359C0.904622 20.2311 0.968424 20.1286 1.03223 20.0283C1.37858 19.3356 1.74089 18.5381 2.11914 17.6357C2.43359 16.8747 2.64551 16.2435 2.75488 15.7422C2.86882 15.2409 2.91667 14.8444 2.89844 14.5527C2.88021 14.2565 2.83464 14.0378 2.76172 13.8965C2.6888 13.7552 2.62272 13.6641 2.56348 13.623C2.44954 13.5091 2.44499 13.3633 2.5498 13.1855C2.60449 13.1035 2.67285 13.0397 2.75488 12.9941C2.83691 12.9486 2.92122 12.9281 3.00781 12.9326C3.29036 12.9691 3.5638 13.0511 3.82812 13.1787C3.88737 13.2061 3.95117 13.2334 4.01953 13.2607C4.17904 13.3337 4.35677 13.4066 4.55273 13.4795C4.68034 13.5205 4.78288 13.5114 4.86035 13.4521C4.94238 13.3929 5.01302 13.3063 5.07227 13.1924C5.8151 11.8753 6.53743 10.5719 7.23926 9.28223C7.38053 9.03158 7.51953 8.77865 7.65625 8.52344C8.09375 7.72591 8.40365 7.09017 8.58594 6.61621C8.77279 6.14225 8.88444 5.7959 8.9209 5.57715C8.95736 5.35384 8.96647 5.22396 8.94824 5.1875C8.88444 5.16016 8.8571 5.09408 8.86621 4.98926C8.87988 4.87988 8.93001 4.77507 9.0166 4.6748C9.10319 4.56999 9.22624 4.51758 9.38574 4.51758C9.61816 4.51758 9.78223 4.61556 9.87793 4.81152C10.0876 5.23079 9.55892 6.53418 8.29199 8.72168C8.28288 8.74447 8.27376 8.7627 8.26465 8.77637C8.01855 9.20931 7.74512 9.68327 7.44434 10.1982C6.80176 11.3649 6.29818 12.4222 5.93359 13.3701C5.90169 13.4521 5.89486 13.5114 5.91309 13.5479C5.93587 13.5843 5.96777 13.6071 6.00879 13.6162C6.05436 13.6208 6.10221 13.6185 6.15234 13.6094C6.48047 13.5501 6.84505 13.4225 7.24609 13.2266C8.4401 12.5931 9.68197 11.6725 10.9717 10.4648C12.2614 9.2526 13.4167 8.01302 14.4375 6.74609C15.4629 5.47461 16.1715 4.43099 16.5635 3.61523C16.5999 3.54688 16.6751 3.49219 16.7891 3.45117C16.903 3.4056 17.0192 3.37826 17.1377 3.36914C17.2562 3.35547 17.3451 3.36686 17.4043 3.40332C17.4727 3.46257 17.4818 3.54688 17.4316 3.65625C17.3861 3.76562 17.3245 3.87044 17.2471 3.9707C15.1644 6.61393 13.3415 8.68294 11.7783 10.1777C10.2197 11.6725 8.75456 12.7663 7.38281 13.459C6.95898 13.6686 6.55566 13.8053 6.17285 13.8691C5.98145 13.9056 5.84473 13.9626 5.7627 14.04C5.68522 14.1175 5.63509 14.1973 5.6123 14.2793C5.15658 15.7331 4.98796 16.8883 5.10645 17.7451C5.22493 18.6064 5.53483 19.1807 6.03613 19.4678C6.4554 19.7048 6.98177 19.7731 7.61523 19.6729C8.25326 19.5726 8.92318 19.3288 9.625 18.9414C10.459 18.4674 11.4183 17.752 12.5029 16.7949C13.5921 15.8333 14.6882 14.7806 15.791 13.6367ZM4.52539 14.1494C4.58919 14.0264 4.60742 13.9398 4.58008 13.8896C4.55729 13.835 4.514 13.8008 4.4502 13.7871C4.01725 13.6641 3.67318 13.541 3.41797 13.418C3.26758 13.3542 3.15365 13.3132 3.07617 13.2949C2.9987 13.2721 2.95996 13.2881 2.95996 13.3428C3.21973 13.8532 3.27441 14.5026 3.12402 15.291C2.97819 16.0794 2.72526 16.8815 2.36523 17.6973C2.30599 17.834 2.24674 17.9661 2.1875 18.0938C2.1875 18.0983 2.1875 18.1006 2.1875 18.1006C2.17383 18.1279 2.16927 18.1439 2.17383 18.1484C2.17839 18.1576 2.19206 18.1439 2.21484 18.1074C2.72982 17.2552 3.2653 16.3438 3.82129 15.373C3.97624 15.0996 4.1403 14.8148 4.31348 14.5186C4.36361 14.4365 4.41146 14.3545 4.45703 14.2725C4.47982 14.2314 4.5026 14.1904 4.52539 14.1494ZM22.4561 13.623C22.4743 13.6094 22.4948 13.6025 22.5176 13.6025C22.5404 13.6025 22.5563 13.6071 22.5654 13.6162C22.5791 13.6253 22.5768 13.6436 22.5586 13.6709C22.5449 13.6982 22.5085 13.7347 22.4492 13.7803C21.3737 14.555 20.4235 15.1976 19.5986 15.708C18.7738 16.2139 18.1517 16.4759 17.7324 16.4941C17.5137 16.4941 17.3337 16.4463 17.1924 16.3506C16.8096 16.068 16.748 15.5371 17.0078 14.7578C17.0306 14.6849 17.042 14.6348 17.042 14.6074C17.042 14.5755 17.0329 14.5596 17.0146 14.5596C17.001 14.5596 16.9827 14.5687 16.96 14.5869C16.9372 14.6006 16.9167 14.6165 16.8984 14.6348C16.6842 14.8307 16.4951 14.9948 16.3311 15.127C16.1715 15.2591 16.0075 15.3799 15.8389 15.4893C15.5654 15.667 15.3057 15.7992 15.0596 15.8857C14.8089 15.9678 14.6084 15.9746 14.458 15.9062C14.3395 15.8424 14.2962 15.7445 14.3281 15.6123C14.3555 15.4756 14.4147 15.3366 14.5059 15.1953C14.597 15.0495 14.6768 14.931 14.7451 14.8398C14.7542 14.8353 14.7611 14.8307 14.7656 14.8262C15.0436 14.4479 15.4469 13.9899 15.9756 13.4521C16.3538 13.0557 16.7139 12.7367 17.0557 12.4951C17.402 12.249 17.6937 12.1829 17.9307 12.2969C18.0446 12.3652 18.1107 12.4655 18.1289 12.5977C18.1517 12.7298 18.1449 12.8757 18.1084 13.0352C18.1038 13.0579 18.1038 13.0807 18.1084 13.1035C18.113 13.1217 18.1289 13.1377 18.1562 13.1514C18.2155 13.1924 18.236 13.2493 18.2178 13.3223C18.1995 13.3952 18.1676 13.4727 18.1221 13.5547C18.1175 13.5592 18.1152 13.5615 18.1152 13.5615C17.7188 14.3499 17.4772 14.9355 17.3906 15.3184C17.3086 15.6966 17.3086 15.929 17.3906 16.0156C17.4954 16.1842 17.7324 16.2275 18.1016 16.1455C18.4753 16.0635 19.0153 15.8197 19.7217 15.4141C20.4281 15.0085 21.3395 14.4115 22.4561 13.623ZM17.1172 13.8213C17.1901 13.7074 17.2516 13.5911 17.3018 13.4727C17.3564 13.3496 17.3678 13.2676 17.3359 13.2266C17.3359 13.2266 17.3337 13.2266 17.3291 13.2266C17.3245 13.222 17.32 13.2197 17.3154 13.2197C17.3154 13.2197 17.3154 13.2174 17.3154 13.2129C17.1969 13.2038 16.985 13.3154 16.6797 13.5479C16.3743 13.7757 16.0553 14.0492 15.7227 14.3682C15.39 14.6872 15.1279 14.972 14.9365 15.2227C14.932 15.2272 14.9274 15.234 14.9229 15.2432C14.891 15.2842 14.8522 15.3389 14.8066 15.4072C14.7611 15.4756 14.7406 15.5348 14.7451 15.585C14.7451 15.6351 14.7975 15.6533 14.9023 15.6396C15.1576 15.5986 15.4674 15.4619 15.832 15.2295C16.1966 14.9925 16.5452 14.71 16.8779 14.3818C16.9691 14.277 17.0124 14.1995 17.0078 14.1494C17.0124 14.1494 17.0146 14.1494 17.0146 14.1494C17.0329 14.0264 17.0671 13.917 17.1172 13.8213ZM28.9639 13.623C28.9867 13.6048 29.0094 13.598 29.0322 13.6025C29.0596 13.6071 29.0755 13.6208 29.0801 13.6436C29.0846 13.6663 29.0664 13.6937 29.0254 13.7256C27.166 15.3844 25.6439 16.681 24.459 17.6152C23.2786 18.5495 22.3604 19.2057 21.7041 19.584C21.0479 19.9622 20.5807 20.1423 20.3027 20.124C20.1159 20.124 19.9723 20.083 19.8721 20.001C19.3298 19.5954 19.6921 18.292 20.959 16.0908C22.2259 13.8896 24.2995 10.7406 27.1797 6.64355C27.1979 6.61621 27.2161 6.58887 27.2344 6.56152C27.2845 6.49316 27.3324 6.4248 27.3779 6.35645C27.5785 6.06022 27.7721 5.77539 27.959 5.50195C28.6243 4.50846 29.2031 3.66309 29.6953 2.96582C30.4837 1.81283 30.9827 1.01302 31.1924 0.566406C31.1742 0.539062 31.1787 0.488932 31.2061 0.416016C31.2334 0.343099 31.2835 0.270182 31.3564 0.197266C31.4294 0.119792 31.5205 0.0673828 31.6299 0.0400391C31.7347 0.0172526 31.8281 0.0218099 31.9102 0.0537109C31.9967 0.085612 32.056 0.138021 32.0879 0.210938C32.1471 0.343099 32.1016 0.539062 31.9512 0.798828C31.8008 1.05404 31.5228 1.45736 31.1172 2.00879C30.8711 2.34603 30.5749 2.76302 30.2285 3.25977C30.1191 3.41471 29.8571 3.78385 29.4424 4.36719C29.055 4.90951 28.5811 5.57259 28.0205 6.35645C26.8219 8.05176 25.6598 9.71061 24.5342 11.333C23.4085 12.9508 22.5996 14.1517 22.1074 14.9355C21.6927 15.6146 21.3532 16.2002 21.0889 16.6924C20.82 17.1846 20.6126 17.597 20.4668 17.9297C20.3164 18.2624 20.2139 18.5335 20.1592 18.7432C20.0999 18.9528 20.0703 19.1123 20.0703 19.2217C20.0703 19.3356 20.084 19.4176 20.1113 19.4678C20.1387 19.5179 20.1615 19.5498 20.1797 19.5635C20.1842 19.5635 20.1865 19.5658 20.1865 19.5703C20.4235 19.748 20.8792 19.6592 21.5537 19.3037C22.2236 18.9528 23.0052 18.4447 23.8984 17.7793C24.7962 17.1185 25.694 16.4144 26.5918 15.667C27.4896 14.915 28.2803 14.2337 28.9639 13.623ZM39.5391 13.623C39.5755 13.6048 39.6051 13.6025 39.6279 13.6162C39.6507 13.6253 39.6576 13.6458 39.6484 13.6777C39.6393 13.7051 39.6074 13.7347 39.5527 13.7666C38.3952 14.4684 37.2855 15.1156 36.2236 15.708C35.1663 16.2959 34.2572 16.7266 33.4961 17C32.735 17.278 32.2223 17.2939 31.958 17.0479C31.7803 16.8519 31.7233 16.6081 31.7871 16.3164C31.8509 16.0247 31.9694 15.6829 32.1426 15.291C32.2064 15.1361 32.2725 14.9697 32.3408 14.792C32.3727 14.7008 32.3887 14.6393 32.3887 14.6074C32.3887 14.5755 32.375 14.5641 32.3477 14.5732C32.3249 14.5778 32.2952 14.596 32.2588 14.6279C32.2269 14.6553 32.1927 14.6849 32.1562 14.7168C32.1562 14.7214 32.1562 14.7236 32.1562 14.7236C31.1309 15.749 30.3014 16.4896 29.668 16.9453C29.0345 17.3965 28.4831 17.5924 28.0137 17.5332C27.8952 17.5195 27.779 17.4785 27.665 17.4102C27.5465 17.3464 27.4691 17.2279 27.4326 17.0547C27.3962 16.8861 27.4417 16.6377 27.5693 16.3096C27.8291 15.6533 28.1117 15.0632 28.417 14.5391C28.7223 14.015 29.0117 13.5456 29.2852 13.1309C29.3125 13.0898 29.3398 13.0488 29.3672 13.0078C29.6087 12.625 29.766 12.3652 29.8389 12.2285C29.8389 12.224 29.8389 12.2171 29.8389 12.208C29.8389 12.1488 29.8457 12.0895 29.8594 12.0303C29.8776 11.9665 29.9141 11.9095 29.9688 11.8594C30.0736 11.7865 30.1966 11.75 30.3379 11.75C30.4792 11.75 30.5794 11.7956 30.6387 11.8867C30.707 12.0143 30.6911 12.1784 30.5908 12.3789C30.4951 12.5749 30.2923 12.8848 29.9824 13.3086C29.7773 13.5957 29.5176 13.9854 29.2031 14.4775C28.8887 14.9697 28.6107 15.4482 28.3691 15.9131C28.1276 16.3734 28.016 16.7015 28.0342 16.8975C28.0479 17.0296 28.1276 17.1162 28.2734 17.1572C28.4147 17.1982 28.6585 17.1299 29.0049 16.9521C29.3558 16.7744 29.848 16.4258 30.4814 15.9062C31.1149 15.3867 31.9284 14.6348 32.9219 13.6504C32.9766 13.6003 33.0472 13.5547 33.1338 13.5137C33.2249 13.4727 33.2979 13.4658 33.3525 13.4932C33.4072 13.5205 33.4118 13.6117 33.3662 13.7666C33.2386 14.154 33.1019 14.5322 32.9561 14.9014C32.7738 15.348 32.637 15.7399 32.5459 16.0771C32.4548 16.4098 32.4775 16.64 32.6143 16.7676C32.7054 16.8587 32.9902 16.8359 33.4688 16.6992C33.9473 16.5579 34.6764 16.2458 35.6562 15.7627C36.6361 15.2751 37.9303 14.5618 39.5391 13.623ZM45.4453 13.6162C45.459 13.6253 45.4613 13.6413 45.4521 13.6641C45.443 13.6868 45.4225 13.7096 45.3906 13.7324C45.3861 13.7324 45.3838 13.7324 45.3838 13.7324C45.3838 13.7324 45.3838 13.7347 45.3838 13.7393C44.2126 14.473 43.1006 15.0586 42.0479 15.4961C40.9951 15.9336 40.1862 16.1296 39.6211 16.084C39.252 16.0612 38.9922 15.9359 38.8418 15.708C38.6732 15.3708 38.7142 14.9492 38.9648 14.4434C39.0378 14.3021 39.1175 14.1699 39.2041 14.0469C39.2725 13.9466 39.3408 13.8509 39.4092 13.7598C39.7236 13.3997 39.9834 13.1377 40.1885 12.9736C40.2067 12.9554 40.2227 12.9395 40.2363 12.9258C40.2409 12.9258 40.2432 12.9235 40.2432 12.9189C40.3844 12.805 40.5212 12.6979 40.6533 12.5977C41.5967 11.9141 42.2871 11.6543 42.7246 11.8184C42.8294 11.8639 42.9092 11.9346 42.9639 12.0303C43.0186 12.1214 43.0254 12.2308 42.9844 12.3584C42.9251 12.5179 42.7975 12.6637 42.6016 12.7959C42.4102 12.9281 42.1823 13.0443 41.918 13.1445C41.3574 13.3542 40.8311 13.5114 40.3389 13.6162C40.2796 13.6253 40.193 13.6618 40.0791 13.7256C39.9697 13.7848 39.8535 13.876 39.7305 13.999C39.7259 14.0036 39.7236 14.0059 39.7236 14.0059C39.7145 14.0195 39.7031 14.0332 39.6895 14.0469C39.4206 14.3477 39.2451 14.6758 39.1631 15.0312C39.1631 15.2819 39.2565 15.4688 39.4434 15.5918C39.6302 15.7103 39.8535 15.7695 40.1133 15.7695C40.6237 15.7695 41.3369 15.5804 42.2529 15.2021C43.1689 14.8239 44.2103 14.2952 45.377 13.6162C45.4089 13.598 45.4316 13.598 45.4453 13.6162ZM40.4004 13.3975C40.3639 13.4248 40.3411 13.4476 40.332 13.4658C40.3229 13.484 40.3434 13.4886 40.3936 13.4795C40.6442 13.4202 40.9382 13.3337 41.2754 13.2197C41.5215 13.1377 41.7243 13.0511 41.8838 12.96C42.0479 12.8643 42.1162 12.7777 42.0889 12.7002C42.0889 12.7002 42.0889 12.6979 42.0889 12.6934C42.0889 12.6934 42.0866 12.6911 42.082 12.6865C42.082 12.682 42.082 12.6797 42.082 12.6797C42.0456 12.6387 41.9818 12.6204 41.8906 12.625C41.8177 12.6341 41.7311 12.6546 41.6309 12.6865C41.6263 12.6865 41.624 12.6865 41.624 12.6865C41.624 12.6911 41.624 12.6934 41.624 12.6934C41.6104 12.6934 41.5967 12.6979 41.583 12.707C41.583 12.707 41.5807 12.707 41.5762 12.707C41.5762 12.707 41.5739 12.707 41.5693 12.707C41.4463 12.7526 41.3073 12.821 41.1523 12.9121C40.9108 13.0397 40.6602 13.2015 40.4004 13.3975ZM55.2549 13.6162C55.2686 13.6071 55.2845 13.6048 55.3027 13.6094C55.321 13.6094 55.3346 13.6162 55.3438 13.6299C55.3574 13.639 55.3574 13.6549 55.3438 13.6777C55.3346 13.7005 55.305 13.7301 55.2549 13.7666C54.43 14.3271 53.6667 14.8193 52.9648 15.2432C52.263 15.667 51.6615 15.9746 51.1602 16.166C50.6634 16.3574 50.3079 16.3893 50.0938 16.2617C49.9388 16.1432 49.8477 15.9678 49.8203 15.7354C49.793 15.4984 49.7998 15.2477 49.8408 14.9834C49.8864 14.7145 49.9388 14.4707 49.998 14.252C50.0072 14.2201 50.0094 14.1995 50.0049 14.1904C50.0049 14.1813 50.0003 14.1813 49.9912 14.1904C49.9821 14.195 49.973 14.2018 49.9639 14.2109C49.9593 14.2155 49.957 14.2201 49.957 14.2246C49.9525 14.2246 49.9502 14.2269 49.9502 14.2314C49.9456 14.2314 49.9434 14.2314 49.9434 14.2314C49.8796 14.2998 49.8158 14.3682 49.752 14.4365C49.3646 14.8604 49.0114 15.2044 48.6924 15.4688C48.3779 15.7331 48.1022 15.8219 47.8652 15.7354C47.7148 15.6533 47.6738 15.4232 47.7422 15.0449C47.8105 14.6667 47.9495 14.2155 48.1592 13.6914C48.3688 13.1628 48.6058 12.6364 48.8701 12.1123C48.8883 12.0758 48.8952 12.0531 48.8906 12.0439C48.8906 12.0348 48.8838 12.0348 48.8701 12.0439C48.8564 12.0531 48.8428 12.0667 48.8291 12.085C48.1911 12.7458 47.4756 13.4453 46.6826 14.1836C45.8896 14.9173 45.2425 15.4688 44.7412 15.8379C44.4359 16.0475 44.2057 16.1432 44.0508 16.125C43.8913 16.1022 43.8936 15.9518 44.0576 15.6738C44.1624 15.5052 44.265 15.3389 44.3652 15.1748C44.5885 14.7874 44.9349 14.2611 45.4043 13.5957C45.4772 13.4954 45.5684 13.4316 45.6777 13.4043C45.7871 13.3724 45.8874 13.377 45.9785 13.418C46.0697 13.4635 46.1426 13.5228 46.1973 13.5957C46.252 13.6686 46.2383 13.7484 46.1562 13.835C45.9421 14.0446 45.6868 14.3158 45.3906 14.6484C45.0898 14.9811 44.8643 15.25 44.7139 15.4551C44.7002 15.4733 44.6888 15.4938 44.6797 15.5166C44.666 15.5348 44.6592 15.5531 44.6592 15.5713C44.6592 15.585 44.6683 15.5895 44.6865 15.585C44.7048 15.5804 44.7389 15.5622 44.7891 15.5303C45.1035 15.3115 45.6732 14.8239 46.498 14.0674C47.3275 13.3063 48.2344 12.4017 49.2188 11.3535C49.2962 11.276 49.3942 11.2327 49.5127 11.2236C49.6357 11.21 49.7383 11.2305 49.8203 11.2852C49.9023 11.3353 49.9274 11.4219 49.8955 11.5449C49.8955 11.5449 49.8135 11.6702 49.6494 11.9209C49.4854 12.1715 49.2917 12.4906 49.0684 12.8779C48.8496 13.2607 48.6423 13.6641 48.4463 14.0879C48.2549 14.5117 48.1204 14.9036 48.043 15.2637C48.043 15.2682 48.043 15.2728 48.043 15.2773C48.043 15.2819 48.043 15.2842 48.043 15.2842C48.0384 15.307 48.0339 15.3275 48.0293 15.3457C48.0202 15.3958 48.0202 15.4437 48.0293 15.4893C48.0384 15.5348 48.0635 15.5736 48.1045 15.6055C48.2503 15.6693 48.4622 15.5622 48.7402 15.2842C49.0228 15.0016 49.3145 14.6803 49.6152 14.3203C49.8385 14.056 50.0368 13.835 50.21 13.6572C50.3831 13.4749 50.5062 13.3883 50.5791 13.3975C50.734 13.443 50.807 13.5319 50.7979 13.6641C50.7887 13.7917 50.7523 13.9443 50.6885 14.1221C50.6611 14.1904 50.6361 14.2611 50.6133 14.334C50.5951 14.3932 50.5745 14.4616 50.5518 14.5391C50.4925 14.7168 50.4333 14.9128 50.374 15.127C50.3148 15.3366 50.276 15.528 50.2578 15.7012C50.2441 15.8743 50.276 15.986 50.3535 16.0361C50.4219 16.0908 50.6315 16.0749 50.9824 15.9883C51.3379 15.8971 51.862 15.6715 52.5547 15.3115C53.252 14.9469 54.152 14.3796 55.2549 13.6094V13.6162ZM61.1406 13.6162C61.1543 13.6253 61.1566 13.6413 61.1475 13.6641C61.1383 13.6868 61.1178 13.7096 61.0859 13.7324C61.0814 13.7324 61.0791 13.7324 61.0791 13.7324C61.0791 13.7324 61.0791 13.7347 61.0791 13.7393C59.9079 14.473 58.7959 15.0586 57.7432 15.4961C56.6904 15.9336 55.8815 16.1296 55.3164 16.084C54.9473 16.0612 54.6875 15.9359 54.5371 15.708C54.3685 15.3708 54.4095 14.9492 54.6602 14.4434C54.7331 14.3021 54.8128 14.1699 54.8994 14.0469C54.9678 13.9466 55.0361 13.8509 55.1045 13.7598C55.4189 13.3997 55.6787 13.1377 55.8838 12.9736C55.902 12.9554 55.918 12.9395 55.9316 12.9258C55.9362 12.9258 55.9385 12.9235 55.9385 12.9189C56.0798 12.805 56.2165 12.6979 56.3486 12.5977C57.292 11.9141 57.9824 11.6543 58.4199 11.8184C58.5247 11.8639 58.6045 11.9346 58.6592 12.0303C58.7139 12.1214 58.7207 12.2308 58.6797 12.3584C58.6204 12.5179 58.4928 12.6637 58.2969 12.7959C58.1055 12.9281 57.8776 13.0443 57.6133 13.1445C57.0527 13.3542 56.5264 13.5114 56.0342 13.6162C55.9749 13.6253 55.8883 13.6618 55.7744 13.7256C55.665 13.7848 55.5488 13.876 55.4258 13.999C55.4212 14.0036 55.4189 14.0059 55.4189 14.0059C55.4098 14.0195 55.3984 14.0332 55.3848 14.0469C55.1159 14.3477 54.9404 14.6758 54.8584 15.0312C54.8584 15.2819 54.9518 15.4688 55.1387 15.5918C55.3255 15.7103 55.5488 15.7695 55.8086 15.7695C56.319 15.7695 57.0322 15.5804 57.9482 15.2021C58.8643 14.8239 59.9056 14.2952 61.0723 13.6162C61.1042 13.598 61.127 13.598 61.1406 13.6162ZM56.0957 13.3975C56.0592 13.4248 56.0365 13.4476 56.0273 13.4658C56.0182 13.484 56.0387 13.4886 56.0889 13.4795C56.3395 13.4202 56.6335 13.3337 56.9707 13.2197C57.2168 13.1377 57.4196 13.0511 57.5791 12.96C57.7432 12.8643 57.8115 12.7777 57.7842 12.7002C57.7842 12.7002 57.7842 12.6979 57.7842 12.6934C57.7842 12.6934 57.7819 12.6911 57.7773 12.6865C57.7773 12.682 57.7773 12.6797 57.7773 12.6797C57.7409 12.6387 57.6771 12.6204 57.5859 12.625C57.513 12.6341 57.4264 12.6546 57.3262 12.6865C57.3216 12.6865 57.3193 12.6865 57.3193 12.6865C57.3193 12.6911 57.3193 12.6934 57.3193 12.6934C57.3057 12.6934 57.292 12.6979 57.2783 12.707C57.2783 12.707 57.276 12.707 57.2715 12.707C57.2715 12.707 57.2692 12.707 57.2646 12.707C57.1416 12.7526 57.0026 12.821 56.8477 12.9121C56.6061 13.0397 56.3555 13.2015 56.0957 13.3975Z" fill="black"/>
</svg>
