<svg width="14" height="14" viewBox="0 0 14 14" fill="none" xmlns="http://www.w3.org/2000/svg">
<path d="M5.26747 12.6525L6.62664 11.5092C6.83081 11.3342 7.16914 11.3342 7.37331 11.5092L8.73247 12.6525C9.04747 12.81 9.43248 12.6525 9.54914 12.3142L9.80581 11.5383C9.86997 11.3517 9.80581 11.0775 9.66581 10.9375L8.34164 9.60748C8.24247 9.51415 8.16664 9.32749 8.16664 9.19332V7.53082C8.16664 7.28582 8.34747 7.16915 8.57497 7.26248L11.4391 8.49915C11.8883 8.69165 12.2558 8.45248 12.2558 7.96248V7.20998C12.2558 6.81915 11.9641 6.36998 11.6025 6.21832L8.34164 4.81249C8.24831 4.77165 8.16664 4.64915 8.16664 4.54415V2.79415C8.16664 2.24582 7.76414 1.59832 7.27414 1.34749C7.09914 1.25999 6.89497 1.25999 6.71997 1.34749C6.22997 1.59832 5.82747 2.25165 5.82747 2.79999V4.54999C5.82747 4.65499 5.74581 4.77749 5.65247 4.81832L2.39747 6.22415C2.03581 6.36999 1.74414 6.81915 1.74414 7.20998V7.96248C1.74414 8.45248 2.11164 8.69165 2.56081 8.49915L5.42497 7.26248C5.64664 7.16332 5.83331 7.28582 5.83331 7.53082V9.19332C5.83331 9.32749 5.75747 9.51415 5.66414 9.60748L4.33997 10.9375C4.19997 11.0775 4.13581 11.3458 4.19997 11.5383L4.45664 12.3142C4.56164 12.6525 4.94664 12.8158 5.26747 12.6525Z" stroke="#292D32" stroke-linecap="round" stroke-linejoin="round"/>
</svg>
