<svg width="13" height="10" viewBox="0 0 13 10" fill="none" xmlns="http://www.w3.org/2000/svg">
<path d="M12.7467 2.67323C12.8987 2.6234 13.0002 2.49066 13 2.34187C12.9998 2.19309 12.898 2.06058 12.7459 2.01108L6.62672 0.0200204C6.54474 -0.00667347 6.45529 -0.00667347 6.3733 0.0200204L0.25416 2.01108C0.10202 2.06056 0.000203429 2.19309 3.04358e-07 2.34187C-0.000202821 2.49066 0.101284 2.6234 0.253297 2.67323L2.67731 3.46796V5.75911C2.67731 6.13725 3.10507 6.45704 3.9487 6.70956C4.68404 6.92966 5.59013 7.05089 6.50003 7.05089C7.40992 7.05089 8.31599 6.92966 9.05135 6.70956C9.89498 6.45704 10.3227 6.13728 10.3227 5.75911V3.46796L11.3236 3.13983V6.31463C10.8785 6.45976 10.5587 6.85148 10.5587 7.31101C10.5587 7.77052 10.8785 8.16227 11.3236 8.3074V9.64876C11.3236 9.84274 11.4941 10 11.7044 10C11.9148 10 12.0853 9.84274 12.0853 9.64876V8.3074C12.5303 8.16227 12.8502 7.77055 12.8502 7.31101C12.8502 6.8515 12.5303 6.45976 12.0853 6.31463V2.89008L12.7467 2.67323ZM11.7044 7.66515C11.4926 7.66515 11.3204 7.50628 11.3204 7.31099C11.3204 7.1157 11.4926 6.95683 11.7044 6.95683C11.9162 6.95683 12.0884 7.1157 12.0884 7.31099C12.0884 7.50628 11.9162 7.66515 11.7044 7.66515ZM6.5 0.723685L11.4783 2.34356L6.5 3.9757L1.52169 2.34354L6.5 0.723685ZM9.56099 5.70617C9.48799 5.77403 9.22667 5.93656 8.63688 6.09173C8.00767 6.25726 7.24877 6.34842 6.5 6.34842C5.75123 6.34842 4.99236 6.25726 4.36313 6.09173C3.77333 5.93656 3.51201 5.77405 3.43901 5.70617V3.71769L6.37241 4.67942C6.41367 4.69295 6.45684 4.69972 6.49997 4.69972C6.54314 4.69972 6.58628 4.69295 6.62754 4.67942L9.56094 3.71769V5.70617H9.56099Z" fill="#00BD79"/>
</svg>
