<svg width="15" height="15" viewBox="0 0 15 15" fill="none" xmlns="http://www.w3.org/2000/svg">
<path d="M13.9062 15H1.09375C0.490625 15 0 14.5094 0 13.9062V12.3438C0 11.7406 0.490625 11.25 1.09375 11.25H13.9062C14.5094 11.25 15 11.7406 15 12.3438V13.9062C15 14.5094 14.5094 15 13.9062 15ZM1.09375 12.1875C1.0075 12.1875 0.9375 12.2575 0.9375 12.3438V13.9062C0.9375 13.9925 1.0075 14.0625 1.09375 14.0625H13.9062C13.9925 14.0625 14.0625 13.9925 14.0625 13.9062V12.3438C14.0625 12.2575 13.9925 12.1875 13.9062 12.1875H1.09375Z" fill="#49CDCD"/>
<path d="M11.4063 12.0312C11.1475 12.0312 10.9375 11.8212 10.9375 11.5625V8.75C10.9375 6.85437 9.395 5.3125 7.5 5.3125C5.605 5.3125 4.0625 6.85437 4.0625 8.75V11.5625C4.0625 11.8212 3.8525 12.0312 3.59375 12.0312C3.335 12.0312 3.125 11.8212 3.125 11.5625V8.75C3.125 6.3375 5.08813 4.375 7.5 4.375C9.91188 4.375 11.875 6.3375 11.875 8.75V11.5625C11.875 11.8212 11.665 12.0312 11.4063 12.0312Z" fill="#49CDCD"/>
<path d="M5.46875 9.21875C5.21 9.21875 5 9.00875 5 8.75C5 7.37125 6.12125 6.25 7.5 6.25C7.75875 6.25 7.96875 6.46 7.96875 6.71875C7.96875 6.9775 7.75875 7.1875 7.5 7.1875C6.63812 7.1875 5.9375 7.88875 5.9375 8.75C5.9375 9.00875 5.7275 9.21875 5.46875 9.21875Z" fill="#49CDCD"/>
<path d="M7.5 3.125C7.24125 3.125 7.03125 2.915 7.03125 2.65625V0.46875C7.03125 0.21 7.24125 0 7.5 0C7.75875 0 7.96875 0.21 7.96875 0.46875V2.65625C7.96875 2.915 7.75875 3.125 7.5 3.125Z" fill="#49CDCD"/>
<path d="M11.0936 4.37547C10.9736 4.37547 10.8536 4.32984 10.7623 4.23797C10.5792 4.05484 10.5792 3.75797 10.7623 3.57484L12.3092 2.02797C12.4923 1.84484 12.7892 1.84484 12.9723 2.02797C13.1555 2.21109 13.1555 2.50797 12.9723 2.69109L11.4248 4.23797C11.3336 4.32984 11.2136 4.37547 11.0936 4.37547Z" fill="#49CDCD"/>
<path d="M3.9061 4.37547C3.7861 4.37547 3.6661 4.32984 3.57485 4.23797L2.02797 2.69109C1.84484 2.50797 1.84484 2.21109 2.02797 2.02797C2.21109 1.84484 2.50797 1.84484 2.69109 2.02797L4.23735 3.57547C4.42047 3.75859 4.42047 4.05547 4.23735 4.23859C4.1461 4.32984 4.0261 4.37547 3.9061 4.37547Z" fill="#49CDCD"/>
<path d="M1.40625 7.96875H0.46875C0.21 7.96875 0 7.75875 0 7.5C0 7.24125 0.21 7.03125 0.46875 7.03125H1.40625C1.665 7.03125 1.875 7.24125 1.875 7.5C1.875 7.75875 1.665 7.96875 1.40625 7.96875Z" fill="#49CDCD"/>
<path d="M14.5312 7.96875H13.5938C13.335 7.96875 13.125 7.75875 13.125 7.5C13.125 7.24125 13.335 7.03125 13.5938 7.03125H14.5312C14.79 7.03125 15 7.24125 15 7.5C15 7.75875 14.79 7.96875 14.5312 7.96875Z" fill="#49CDCD"/>
</svg>
