<svg width="15" height="14" viewBox="0 0 15 14" fill="none" xmlns="http://www.w3.org/2000/svg">
<path d="M3.15525 6.75C3.08272 6.75 3.01023 6.77831 2.95583 6.8346C2.8494 6.94471 2.8524 7.12027 2.96254 7.22669C3.32515 7.57714 3.91514 7.57714 4.27776 7.22669C4.3879 7.12027 4.39089 6.94471 4.28447 6.8346C4.17804 6.72449 4.00249 6.72149 3.89238 6.82792C3.74225 6.97297 3.49804 6.97297 3.34792 6.82792C3.29412 6.77587 3.22466 6.75 3.15525 6.75Z" fill="#2700C3"/>
<path d="M14.1891 8.25824C14.224 8.11754 14.1446 7.97371 14.007 7.92826C13.3501 7.71125 12.5671 7.22203 12.5671 6.12351V5.54187C12.5671 4.64486 12.3616 3.94287 11.9564 3.45544C11.5642 2.98372 10.994 2.73438 10.3075 2.73438C9.64982 2.73438 9.09016 2.98274 8.68898 3.45267C8.2696 3.94392 8.04791 4.66635 8.04791 5.54187V6.12351C8.04791 6.73189 7.80894 7.21529 7.33732 7.5621C7.22485 7.53961 7.10864 7.5276 6.98965 7.5276C6.23126 7.5276 5.5824 8.00593 5.32923 8.6767C5.2552 8.6559 4.86727 8.55136 4.75274 8.51781V8.33333C5.49364 7.9304 5.99764 7.14483 5.99764 6.24377V5.14254C5.99764 3.83156 4.93146 2.76499 3.62092 2.76499C2.30997 2.76499 1.24343 3.83156 1.24343 5.14254V6.24377C1.24343 7.14469 1.74743 7.93012 2.48838 8.33311V8.51778C2.37386 8.55134 2.2549 8.5835 2.13179 8.61678C1.19263 8.86997 0.0235698 9.18497 0 10.6183V13.0485C0 13.2015 0.124226 13.3258 0.277291 13.3258H4.0268V13.72C4.0268 13.7207 4.02668 13.7214 4.02668 13.7221C4.02668 13.8752 4.15083 13.9994 4.30398 13.9994H5.74315C5.89629 13.9994 6.02044 13.8752 6.02044 13.7221C6.02044 13.5689 5.89629 13.4448 5.74315 13.4448H4.58135V13.2787C4.58468 13.0757 4.61158 12.9093 4.65982 12.7712C4.83424 12.2715 5.28567 12.1384 5.90042 11.9571C5.92926 11.9486 5.95843 11.94 5.98772 11.9313C6.13371 12.3312 6.5179 12.6175 6.96772 12.6175C7.45489 12.6175 7.84762 12.3399 7.99303 11.9319C8.02162 11.9404 8.05007 11.9488 8.07827 11.9571C8.863 12.1886 9.38154 12.3414 9.39735 13.2786V13.4447H8.23322C8.08007 13.4447 7.95593 13.5689 7.95593 13.722C7.95593 13.8752 8.08007 13.9993 8.23322 13.9993H9.67475C9.8279 13.9993 9.95204 13.8752 9.95204 13.722C9.95204 13.7213 9.95193 13.7207 9.95193 13.72V13.3257H13.6511C13.8043 13.3257 13.9284 13.2016 13.9284 13.0484V10.6227C13.9284 10.6212 13.9284 10.6197 13.9284 10.6182C13.9188 10.0374 13.7212 9.64031 13.4271 9.35651C13.8263 9.16939 14.0461 8.83523 14.1891 8.25824ZM10.3075 3.28893C10.8312 3.28893 11.2425 3.46423 11.5299 3.80996C11.8183 4.15688 11.9782 4.66452 12.0072 5.32006C11.4937 5.40913 10.8891 5.33717 10.5549 4.67627C10.4544 4.47779 10.1605 4.47754 10.06 4.67627C9.72593 5.33692 9.12175 5.40907 8.60828 5.32017C8.67245 4.04358 9.29713 3.28893 10.3075 3.28893ZM8.60249 5.88027C8.72048 5.89672 8.8353 5.90501 8.94655 5.90501C9.50563 5.90501 9.97467 5.6987 10.3075 5.30392C10.6403 5.69873 11.1093 5.90501 11.6685 5.90501C11.7797 5.90501 11.8945 5.89672 12.0125 5.88027V6.12354C12.0125 7.06372 11.2477 7.8286 10.3075 7.8286C9.36737 7.8286 8.60252 7.06372 8.60252 6.12354V5.88027H8.60249ZM10.8854 8.3079V8.72212C10.8854 9.04034 10.6261 9.29925 10.3075 9.29925C9.98928 9.29925 9.7304 9.04034 9.7304 8.72212V8.30812C9.91469 8.3569 10.108 8.38319 10.3075 8.38319C10.5072 8.38316 10.7008 8.35682 10.8854 8.3079ZM8.34156 7.23537C8.53993 7.58478 8.82876 7.8763 9.17582 8.07819V8.51778C9.06052 8.55158 8.94101 8.58381 8.81711 8.61719C8.76007 8.63255 8.70218 8.64825 8.64406 8.66419C8.50333 8.3013 8.24742 7.99578 7.92124 7.79325C8.09322 7.62671 8.23383 7.44012 8.34156 7.23537ZM5.85941 8.84335C6.04104 8.39747 6.47916 8.08219 6.98965 8.08219C7.58272 8.08219 8.0778 8.50888 8.18705 9.0725C7.81745 8.89562 7.40631 8.80109 6.98946 8.80109C6.57244 8.80109 6.16122 8.89573 5.79167 9.07273C5.80689 8.99331 5.82963 8.91653 5.85941 8.84335ZM1.79804 5.14254C1.79804 4.13736 2.6158 3.31957 3.62095 3.31957C4.62569 3.31957 5.44309 4.13736 5.44309 5.14254V5.42945C4.71415 5.4538 3.79551 5.36714 3.11814 4.90351C2.99622 4.82008 2.83031 4.84686 2.74086 4.96438C2.50638 5.27248 2.21192 5.3489 1.79807 5.39809V5.14254H1.79804ZM1.79804 6.24377V5.95625C2.24404 5.90639 2.6641 5.82492 3.01288 5.49076C3.77166 5.92037 4.69856 6.00705 5.44306 5.98434V6.24377C5.44306 7.24854 4.62566 8.06596 3.62092 8.06596C2.6158 8.06596 1.79804 7.24854 1.79804 6.24377ZM4.19816 8.54928V8.71962C4.19816 8.72046 4.19802 8.72126 4.19802 8.72209C4.19802 9.04031 3.93914 9.29922 3.62092 9.29922C3.30229 9.29922 3.04305 9.04031 3.04305 8.72209C3.04305 8.72151 3.04297 8.72093 3.04297 8.72034V8.54915C3.22809 8.59554 3.42164 8.62052 3.62092 8.62052C3.81999 8.62055 4.01329 8.59562 4.19816 8.54928ZM5.92485 11.3711C5.86413 11.3897 5.8034 11.4077 5.74351 11.4252C5.05915 11.6271 4.29605 11.8519 4.08392 12.7712H2.03856V11.6493C2.03856 11.4961 1.91442 11.372 1.76127 11.372C1.60812 11.372 1.48398 11.4961 1.48398 11.6493V12.7712H0.554583V10.6252C0.57122 9.67963 1.2162 9.43784 2.27601 9.15223C2.36527 9.1281 2.45597 9.10353 2.5462 9.07805C2.69585 9.52815 3.12094 9.8538 3.62095 9.8538C4.12063 9.8538 4.54541 9.52815 4.69496 9.07802C4.78524 9.10351 5.13624 9.19881 5.21721 9.22183C5.21582 9.24845 5.21527 9.27534 5.21527 9.30224V9.69433C5.21527 10.2736 5.49422 10.7891 5.92485 11.113V11.3711ZM7.49931 11.5736C7.49931 11.5739 7.49926 11.5743 7.49926 11.5746C7.49926 11.9101 7.22374 12.0629 6.96775 12.0629C6.69852 12.0629 6.47946 11.8438 6.47946 11.5746C6.47946 11.5743 6.47944 11.5741 6.47944 11.5738V11.3941C6.54682 11.4144 6.61586 11.431 6.68657 11.4429C6.78501 11.4601 6.88622 11.469 6.98965 11.469C7.07506 11.469 7.15908 11.4629 7.24116 11.451C7.32934 11.4388 7.41557 11.4196 7.49931 11.3944V11.5736ZM7.64683 10.722C7.27413 10.9705 6.71466 10.9829 6.34218 10.7278C6.00577 10.5163 5.78 10.1451 5.77074 9.72128C6.49682 9.23752 7.48215 9.23755 8.20885 9.72139C8.19961 10.141 7.978 10.5095 7.64683 10.722ZM13.3739 12.7711H12.4445V11.6493C12.4445 11.4961 12.3203 11.372 12.1672 11.372C12.014 11.372 11.8899 11.4961 11.8899 11.6493V12.7711H9.89478C9.68246 11.8519 8.91949 11.627 8.23525 11.4252C8.17535 11.4077 8.11462 11.3897 8.0539 11.3711V11.1138C8.48508 10.7896 8.76432 10.2739 8.76432 9.69433V9.30695C8.76432 9.27343 8.76321 9.24015 8.76135 9.20705C8.82832 9.18855 8.89536 9.17044 8.96136 9.15267C9.05126 9.12843 9.14257 9.10375 9.23349 9.07811C9.38307 9.52818 9.80782 9.85383 10.3075 9.85383C10.8075 9.85383 11.2325 9.5282 11.3822 9.07813C11.4724 9.10359 11.5631 9.12813 11.6524 9.1522C12.7123 9.43786 13.3573 9.67969 13.3738 10.6251V12.7711H13.3739ZM12.8277 8.95951C12.4964 8.80533 12.132 8.70706 11.7967 8.61669C11.6735 8.58347 11.5545 8.55142 11.44 8.51781V8.07775C11.7859 7.87633 12.0739 7.58586 12.2721 7.23775C12.5872 7.8352 13.1326 8.17427 13.5825 8.36153C13.4497 8.7476 13.2627 8.88616 12.8277 8.95951Z" fill="#2700C3"/>
<path d="M6.92516 3.51592C6.97887 3.56778 7.0483 3.5937 7.11774 3.5937C7.18717 3.5937 7.25658 3.56778 7.31031 3.51592L8.77769 2.0996C9.26264 1.63195 9.27675 0.856976 8.80899 0.371855C8.58305 0.138015 8.27853 0.00602486 7.95155 0.000201744C7.64054 -0.00534408 7.34669 0.103604 7.11774 0.307884C6.88866 0.103576 6.59476 -0.00526089 6.28395 0.000201744C5.95697 0.00602486 5.65244 0.138043 5.42609 0.372271C4.95916 0.857586 4.97336 1.63248 5.4577 2.09952L6.92516 3.51592ZM5.82531 0.757235C5.94842 0.629819 6.1148 0.55789 6.29385 0.554701C6.29798 0.554645 6.30211 0.55459 6.30627 0.55459C6.4806 0.55459 6.64437 0.620308 6.76879 0.740514L6.92521 0.891443C7.03263 0.995095 7.20286 0.995095 7.31029 0.891443L7.46687 0.740375C7.59407 0.617452 7.76227 0.55154 7.94165 0.554701C8.1207 0.55789 8.28707 0.629819 8.41 0.75704C8.66533 1.02183 8.65759 1.44503 8.39267 1.7005L7.11776 2.93103L5.84278 1.70041C5.57818 1.44528 5.57056 1.02199 5.82531 0.757235Z" fill="#2700C3"/>
<path d="M6.98823 13.4453C6.83508 13.4453 6.71094 13.5695 6.71094 13.7226C6.71094 13.8758 6.83508 13.9999 6.98823 13.9999H6.98981C7.14296 13.9999 7.26632 13.8758 7.26632 13.7226C7.26632 13.5695 7.14138 13.4453 6.98823 13.4453Z" fill="#2700C3"/>
</svg>
