<svg width="14" height="14" viewBox="0 0 14 14" fill="none" xmlns="http://www.w3.org/2000/svg">
<path d="M7 11.375C9.41625 11.375 11.375 9.41625 11.375 7C11.375 4.58375 9.41625 2.625 7 2.625C4.58375 2.625 2.625 4.58375 2.625 7C2.625 9.41625 4.58375 11.375 7 11.375Z" stroke="#292D32" stroke-linecap="round" stroke-linejoin="round"/>
<path d="M7 8.75C7.9665 8.75 8.75 7.9665 8.75 7C8.75 6.0335 7.9665 5.25 7 5.25C6.0335 5.25 5.25 6.0335 5.25 7C5.25 7.9665 6.0335 8.75 7 8.75Z" stroke="#292D32" stroke-linecap="round" stroke-linejoin="round"/>
<path d="M7 2.33335V1.16669" stroke="#292D32" stroke-linecap="round" stroke-linejoin="round"/>
<path d="M2.33366 7H1.16699" stroke="#292D32" stroke-linecap="round" stroke-linejoin="round"/>
<path d="M7 11.6667V12.8334" stroke="#292D32" stroke-linecap="round" stroke-linejoin="round"/>
<path d="M11.667 7H12.8337" stroke="#292D32" stroke-linecap="round" stroke-linejoin="round"/>
</svg>
