<svg width="14" height="14" viewBox="0 0 14 14" fill="none" xmlns="http://www.w3.org/2000/svg">
<path d="M12.6354 6.08998L12.0638 8.52832C11.5738 10.6342 10.6054 11.4858 8.78543 11.3108C8.49376 11.2875 8.17876 11.235 7.84043 11.1533L6.86043 10.92C4.42793 10.3425 3.67543 9.14082 4.2471 6.70248L4.81876 4.25832C4.93543 3.76248 5.07543 3.33082 5.25043 2.97498C5.93293 1.56332 7.09376 1.18415 9.0421 1.64498L10.0163 1.87248C12.4604 2.44415 13.2071 3.65165 12.6354 6.08998Z" stroke="#292D32" stroke-linecap="round" stroke-linejoin="round"/>
<path d="M8.78471 11.3108C8.42304 11.5558 7.96804 11.76 7.41388 11.9408L6.49221 12.2441C4.17638 12.9908 2.95721 12.3666 2.20471 10.0508L1.45804 7.74664C0.711377 5.43081 1.32971 4.20581 3.64554 3.45914L4.56721 3.15581C4.80638 3.07998 5.03388 3.01581 5.24971 2.97498C5.07471 3.33081 4.93471 3.76248 4.81804 4.25831L4.24638 6.70248C3.67471 9.14081 4.42721 10.3425 6.85971 10.92L7.83971 11.1533C8.17804 11.235 8.49304 11.2875 8.78471 11.3108Z" stroke="#292D32" stroke-linecap="round" stroke-linejoin="round"/>
<path d="M7.37305 4.97583L10.2022 5.69333" stroke="#292D32" stroke-linecap="round" stroke-linejoin="round"/>
<path d="M6.80176 7.23334L8.49343 7.665" stroke="#292D32" stroke-linecap="round" stroke-linejoin="round"/>
</svg>
