<svg width="16" height="16" viewBox="0 0 16 16" fill="none" xmlns="http://www.w3.org/2000/svg">
<path d="M6.757 4.86533L2.9221 6.33479C1.69263 6.80591 1.69263 7.86033 2.9221 8.33146L6.757 9.80092C7.44499 10.0664 8.5789 10.0664 9.26689 9.80092L13.0827 8.33146C14.3058 7.86033 14.3058 6.80965 13.0827 6.33853L9.26689 4.86907C8.5789 4.59985 7.44499 4.59985 6.757 4.86533Z" stroke="#292D32" stroke-linecap="round" stroke-linejoin="round"/>
<path d="M3.75374 8.71997L3.74707 11.8466C3.74707 12.6933 4.4004 13.6 5.2004 13.8666L7.32707 14.5733C7.69374 14.6933 8.3004 14.6933 8.67374 14.5733L10.8004 13.8666C11.6004 13.6 12.2537 12.6933 12.2537 11.8466V8.7533" stroke="#292D32" stroke-linecap="round" stroke-linejoin="round"/>
<path d="M14 11.3333V7.33331" stroke="#292D32" stroke-linecap="round" stroke-linejoin="round"/>
</svg>
