<svg width="13" height="11" viewBox="0 0 13 11" fill="none" xmlns="http://www.w3.org/2000/svg">
<path d="M11.4199 0H5.89419C5.25576 0 4.73633 0.519435 4.73633 1.15786V4.70255L3.71032 4.19233C3.67567 4.17505 3.64046 4.15874 3.60495 4.14329C3.90617 3.82883 4.09186 3.40276 4.09186 2.934C4.09186 1.96911 3.3069 1.18406 2.34201 1.18406C1.37703 1.18406 0.592077 1.96911 0.592077 2.934C0.592077 3.45832 0.824206 3.9293 1.19078 4.25029C0.515692 4.6301 0 5.37101 0 6.28887V7.47293C0 7.98267 0.330968 8.41651 0.789372 8.57072V10.6305C0.789372 10.834 0.954328 10.999 1.15786 10.999H3.52598C3.72951 10.999 3.89446 10.834 3.89446 10.6305V6.49029L5.0742 7.08007C5.5257 7.30577 6.13812 7.17123 6.41506 6.65736H7.73625L6.33724 10.5045C6.26767 10.6958 6.36641 10.9073 6.55766 10.9767C6.77626 11.0563 6.97067 10.9192 7.02988 10.7564L8.52044 6.65736H8.77876L10.2846 10.7576C10.3418 10.9131 10.5347 11.0582 10.7576 10.9764C10.9485 10.9062 11.0466 10.6945 10.9764 10.5035L9.56382 6.65736H11.4199C12.0459 6.65736 12.5777 6.15232 12.5777 5.4995V1.15786C12.5777 0.504945 12.0459 0 11.4199 0ZM1.32905 2.934C1.32905 2.37541 1.78343 1.92104 2.34192 1.92104C2.90051 1.92104 3.35488 2.37541 3.35488 2.934C3.35488 3.49249 2.90051 3.94686 2.34192 3.94686C1.78343 3.94686 1.32905 3.49249 1.32905 2.934ZM5.78527 6.26335C5.78431 6.26604 5.78335 6.26882 5.78249 6.2716C5.75735 6.34175 5.70054 6.40086 5.63097 6.42946C5.55737 6.4594 5.47455 6.45623 5.40383 6.42092C4.70312 6.07037 3.69064 5.56456 3.69064 5.56456C3.44614 5.44231 3.15749 5.62041 3.15749 5.89419V10.262H1.52635V8.2623C1.52635 8.05887 1.3613 7.89381 1.15786 7.89381C0.925732 7.89381 0.736977 7.70506 0.736977 7.47293V6.28887C0.736977 5.38848 1.47012 4.68393 2.34192 4.68393H2.66751C2.91452 4.68393 3.16123 4.74189 3.38165 4.85196C3.38165 4.85196 5.20941 5.7609 5.67492 5.99274C5.77462 6.04225 5.82203 6.15856 5.78527 6.26335ZM11.8408 5.4995C11.8408 5.61206 11.7971 5.71772 11.7177 5.79717C11.6394 5.87548 11.5309 5.92038 11.4199 5.92038H6.49519C6.49452 5.91837 6.49404 5.91635 6.49337 5.91444L7.40787 4.08552C7.49884 3.90349 7.42514 3.6822 7.24311 3.59113C7.06116 3.50016 6.83978 3.57386 6.74872 3.7559L5.96875 5.31574C5.82337 5.24329 5.65438 5.15913 5.4733 5.06912V1.15786C5.4733 0.925828 5.66206 0.736977 5.89419 0.736977H11.4199C11.5309 0.736977 11.6394 0.781887 11.7177 0.860383C11.7971 0.939646 11.8408 1.0453 11.8408 1.15786V5.4995Z" fill="#CD4991"/>
<path d="M10.6309 1.5791H6.68392C6.48039 1.5791 6.31543 1.74406 6.31543 1.94759C6.31543 2.15112 6.48039 2.31608 6.68392 2.31608H10.6309C10.8343 2.31608 10.9994 2.15112 10.9994 1.94759C10.9994 1.74406 10.8344 1.5791 10.6309 1.5791Z" fill="#CD4991"/>
<path d="M10.6301 2.95996H8.65657C8.45314 2.95996 8.28809 3.12492 8.28809 3.32845C8.28809 3.53198 8.45314 3.69694 8.65657 3.69694H10.6301C10.8335 3.69694 10.9986 3.53198 10.9986 3.32845C10.9986 3.12492 10.8336 2.95996 10.6301 2.95996Z" fill="#CD4991"/>
<path d="M10.6301 4.3418H8.65657C8.45314 4.3418 8.28809 4.50675 8.28809 4.71029C8.28809 4.91372 8.45314 5.07877 8.65657 5.07877H10.6301C10.8335 5.07877 10.9986 4.91372 10.9986 4.71029C10.9986 4.50675 10.8336 4.3418 10.6301 4.3418Z" fill="#CD4991"/>
</svg>
