<svg width="12" height="11" viewBox="0 0 12 11" fill="none" xmlns="http://www.w3.org/2000/svg">
<g clip-path="url(#clip0)">
<path d="M6.80273 6.96289C6.80273 7.97473 7.69757 8.795 8.80139 8.795C9.90514 8.795 10.8 7.97473 10.8 6.96289C10.8 5.95112 9.90514 5.13086 8.80139 5.13086C7.69805 5.13197 6.80394 5.95157 6.80273 6.96289ZM8.80139 5.49724C9.68446 5.49724 10.4003 6.15342 10.4003 6.96289C10.4003 7.77236 9.68446 8.42855 8.80139 8.42855C7.91833 8.42855 7.2025 7.77236 7.2025 6.96289C7.20347 6.15386 7.91874 5.49812 8.80139 5.49724Z" fill="#0063D7"/>
<path d="M7.65918 10.627H9.94343V10.9933H7.65918V10.627Z" fill="#0063D7"/>
<path d="M6.80273 9.89355H10.8001V10.26H6.80273V9.89355Z" fill="#0063D7"/>
<path d="M2.40625 9.89355H2.80601V10.26H2.40625V9.89355Z" fill="#0063D7"/>
<path d="M1.20703 10.2607H1.60672V10.6272H1.20703V10.2607Z" fill="#0063D7"/>
<path d="M2.42635 8.86305C3.46995 7.19695 4.12475 5.35028 4.34922 3.44013L6.20799 5.13387C6.24516 5.16779 6.29539 5.18694 6.34788 5.18716C6.35869 5.18723 6.36957 5.18642 6.38022 5.18479C6.44359 5.17533 6.4981 5.13853 6.52672 5.0859C6.90351 4.39653 6.75595 3.56341 6.16058 3.01876L5.99714 2.86887H7.40293C7.51331 2.86894 7.60289 2.78697 7.60289 2.68579C7.60297 2.66598 7.59942 2.64632 7.59265 2.62762C7.32722 1.8959 6.58026 1.40247 5.73904 1.40321H5.47925L6.47738 0.482948C6.55526 0.411254 6.55494 0.295288 6.47673 0.22389C6.46157 0.210068 6.44416 0.198538 6.42505 0.189817C5.67269 -0.155939 4.76334 -0.0207556 4.16877 0.525299L3.97792 0.700246C3.91567 0.757675 3.85786 0.818873 3.80465 0.883471C3.75208 0.818873 3.69467 0.757675 3.6329 0.700246L3.44205 0.525299C2.84797 -0.0203861 1.93911 -0.155569 1.18723 0.189817C1.08846 0.23505 1.04838 0.345104 1.09773 0.435571C1.10724 0.453088 1.11982 0.469052 1.1349 0.482948L2.13415 1.40321H1.87178C1.03057 1.40247 0.283527 1.8959 0.0181733 2.62762C-0.0168202 2.72356 0.0397015 2.82733 0.14444 2.85941C0.16484 2.86569 0.186287 2.86887 0.207896 2.86887H1.61231L1.44887 3.01876C0.853502 3.56341 0.705949 4.39653 1.08265 5.0859C1.11136 5.13853 1.16586 5.17533 1.22916 5.18479C1.23988 5.18642 1.25069 5.18723 1.26157 5.18716C1.31438 5.18716 1.36502 5.16802 1.40243 5.13387L3.13332 3.55661C2.919 5.31222 2.19769 6.98364 1.04371 8.39844C0.775049 8.33377 0.50268 8.28285 0.227892 8.24604L0.102996 8.23451L0.0630036 8.59926L0.179514 8.60968C0.379396 8.63592 0.577988 8.67295 0.775532 8.71486C0.73554 8.76083 0.695547 8.80754 0.654184 8.85285L0.96074 9.08788C2.49666 7.41395 3.4123 5.33579 3.57541 3.15357L3.80545 2.94404L3.97768 3.10102C3.76756 5.43476 2.89369 7.67729 1.44323 9.60489L1.77059 9.81487C1.92774 9.60925 2.07763 9.39587 2.22292 9.17843C3.15783 9.58834 3.98332 10.1812 4.64126 10.9152L4.9504 10.683C4.56136 10.2495 4.11564 9.86136 3.62315 9.52758H11.9998V9.16113H3.031C2.83507 9.0527 2.63285 8.95448 2.42635 8.86305ZM6.27451 4.67747L4.16281 2.7529C4.70295 2.60508 5.288 2.73923 5.68857 3.1028L5.87942 3.27782C6.27927 3.64368 6.43053 4.17975 6.27451 4.67747ZM7.09799 2.50249H5.44313C5.05772 2.33434 4.62288 2.28675 4.20514 2.36709C4.49597 1.99221 4.96669 1.76959 5.46853 1.76966H5.73832C6.30329 1.76885 6.82408 2.04956 7.09799 2.50249ZM4.25988 0.959304L4.45082 0.784357C4.85026 0.417758 5.43531 0.279027 5.97852 0.422119L4.79374 1.5146C4.40921 1.64431 4.07911 1.88186 3.8502 2.1934C3.75724 1.7452 3.91059 1.2837 4.26053 0.959304H4.25988ZM3.15888 0.784357L3.34973 0.959304C3.43875 1.0426 3.51599 1.13588 3.57961 1.23684C3.48906 1.42982 3.43738 1.63611 3.42689 1.84587C3.24749 1.70218 3.04084 1.58999 2.81733 1.5146L1.63231 0.422119C2.17535 0.279101 2.76024 0.417832 3.15944 0.784357H3.15888ZM1.87114 1.76966H2.141C2.64317 1.76922 3.11453 1.99177 3.40569 2.36686C2.98819 2.28682 2.55351 2.33442 2.16834 2.50249H0.512839C0.786659 2.04979 1.30705 1.76915 1.87178 1.76966H1.87114ZM1.33632 4.67747C1.1803 4.17975 1.33164 3.64368 1.73148 3.27782L1.92234 3.1028C2.20986 2.83989 2.59979 2.69274 3.006 2.69392C3.1559 2.69399 3.30498 2.71358 3.44891 2.75216L1.33632 4.67747Z" fill="#0063D7"/>
</g>
<defs>
<clipPath id="clip0">
<rect width="12" height="11" fill="white"/>
</clipPath>
</defs>
</svg>
