<svg width="14" height="14" viewBox="0 0 14 14" fill="none" xmlns="http://www.w3.org/2000/svg">
<path d="M10.5813 12.6117C10.068 12.7634 9.4613 12.8334 8.74963 12.8334H5.24963C4.53797 12.8334 3.9313 12.7634 3.41797 12.6117C3.5463 11.095 5.1038 9.89917 6.99963 9.89917C8.89547 9.89917 10.453 11.095 10.5813 12.6117Z" stroke="#00CCF2" stroke-width="0.7" stroke-linecap="round" stroke-linejoin="round"/>
<path d="M8.75033 1.16663H5.25033C2.33366 1.16663 1.16699 2.33329 1.16699 5.24996V8.74996C1.16699 10.955 1.83199 12.1625 3.41866 12.6116C3.54699 11.095 5.10449 9.89911 7.00033 9.89911C8.89616 9.89911 10.4537 11.095 10.582 12.6116C12.1687 12.1625 12.8337 10.955 12.8337 8.74996V5.24996C12.8337 2.33329 11.667 1.16663 8.75033 1.16663ZM7.00033 8.26578C5.84533 8.26578 4.91199 7.32664 4.91199 6.17164C4.91199 5.01664 5.84533 4.08329 7.00033 4.08329C8.15533 4.08329 9.08866 5.01664 9.08866 6.17164C9.08866 7.32664 8.15533 8.26578 7.00033 8.26578Z" stroke="#00CCF2" stroke-width="0.7" stroke-linecap="round" stroke-linejoin="round"/>
<path d="M9.08878 6.17172C9.08878 7.32672 8.15544 8.26586 7.00044 8.26586C5.84544 8.26586 4.91211 7.32672 4.91211 6.17172C4.91211 5.01672 5.84544 4.08337 7.00044 4.08337C8.15544 4.08337 9.08878 5.01672 9.08878 6.17172Z" stroke="#00CCF2" stroke-width="0.8" stroke-linecap="round" stroke-linejoin="round"/>
</svg>
