<svg width="11" height="11" viewBox="0 0 11 11" fill="none" xmlns="http://www.w3.org/2000/svg">
<path d="M8.42188 4.125C8.42188 3.54711 8.25051 2.98219 7.92945 2.50169C7.60839 2.02119 7.15206 1.64669 6.61816 1.42554C6.08425 1.20439 5.49676 1.14653 4.92997 1.25927C4.36318 1.37201 3.84256 1.65029 3.43392 2.05892C3.02529 2.46756 2.74701 2.98818 2.63427 3.55497C2.52153 4.12176 2.57939 4.70925 2.80054 5.24315C3.02169 5.77706 3.39619 6.23339 3.87669 6.55445C4.35719 6.87551 4.92211 7.04688 5.5 7.04688C6.27467 7.04601 7.01735 6.7379 7.56512 6.19012C8.1129 5.64235 8.42101 4.89967 8.42188 4.125ZM2.92188 4.125C2.92188 3.6151 3.07308 3.11664 3.35637 2.69267C3.63966 2.2687 4.0423 1.93826 4.5134 1.74312C4.98449 1.54799 5.50286 1.49694 6.00297 1.59641C6.50308 1.69589 6.96245 1.94143 7.32301 2.30199C7.68357 2.66255 7.92911 3.12193 8.02859 3.62203C8.12807 4.12214 8.07701 4.64052 7.88188 5.11161C7.68675 5.5827 7.3563 5.98535 6.93233 6.26863C6.50836 6.55192 6.00991 6.70313 5.5 6.70313C4.81648 6.70235 4.16117 6.43048 3.67785 5.94716C3.19452 5.46383 2.92265 4.80853 2.92188 4.125Z" fill="#BDC03D"/>
<path d="M6.75297 8.66559C7.82891 7.39527 9.28125 5.43778 9.28125 4.125C9.28125 3.12215 8.88287 2.16037 8.17375 1.45125C7.46463 0.742131 6.50285 0.34375 5.5 0.34375C4.49715 0.34375 3.53537 0.742131 2.82625 1.45125C2.11713 2.16037 1.71875 3.12215 1.71875 4.125C1.71875 5.43778 3.17109 7.39527 4.24703 8.66559C3.51897 8.756 2.23438 9.00367 2.23438 9.625C2.23438 10.302 3.87733 10.6562 5.5 10.6562C7.12267 10.6562 8.76562 10.302 8.76562 9.625C8.76562 9.00367 7.48103 8.756 6.75297 8.66559ZM5.5 0.6875C6.41136 0.688546 7.28509 1.05105 7.92952 1.69548C8.57395 2.33991 8.93645 3.21364 8.9375 4.125C8.9375 5.82209 6.12666 8.88594 5.5 9.54852C4.87317 8.88594 2.0625 5.82278 2.0625 4.125C2.06355 3.21364 2.42605 2.33991 3.07048 1.69548C3.71491 1.05105 4.58864 0.688546 5.5 0.6875ZM5.5 10.3125C3.60938 10.3125 2.57812 9.85823 2.57812 9.625C2.57812 9.46258 3.15047 9.11333 4.51911 8.98184C4.98317 9.51363 5.33242 9.87147 5.37728 9.91719C5.39328 9.93351 5.41238 9.94647 5.43345 9.95532C5.45452 9.96417 5.47715 9.96873 5.5 9.96873C5.52285 9.96873 5.54548 9.96417 5.56655 9.95532C5.58762 9.94647 5.60672 9.93351 5.62272 9.91719C5.66758 9.87147 6.01631 9.51363 6.48089 8.98184C7.84953 9.11333 8.42188 9.46258 8.42188 9.625C8.42188 9.85823 7.39062 10.3125 5.5 10.3125Z" fill="#BDC03D"/>
<path d="M7.21875 5.5V4.29688H7.39062C7.43621 4.29688 7.47993 4.27877 7.51216 4.24653C7.54439 4.2143 7.5625 4.17058 7.5625 4.125V3.26562C7.5625 3.12887 7.50817 2.99772 7.41148 2.90102C7.31478 2.80432 7.18363 2.75 7.04688 2.75H6.35938V2.23438C6.35938 2.14321 6.32316 2.05577 6.25869 1.99131C6.19423 1.92684 6.10679 1.89062 6.01562 1.89062H4.98438C4.89321 1.89062 4.80577 1.92684 4.74131 1.99131C4.67684 2.05577 4.64062 2.14321 4.64062 2.23438V2.75H3.95312C3.81637 2.75 3.68522 2.80432 3.58852 2.90102C3.49182 2.99772 3.4375 3.12887 3.4375 3.26562V4.125C3.4375 4.17058 3.45561 4.2143 3.48784 4.24653C3.52007 4.27877 3.56379 4.29688 3.60938 4.29688H3.78125V5.5C3.78125 5.63675 3.83557 5.7679 3.93227 5.8646C4.02897 5.9613 4.16012 6.01562 4.29688 6.01562H6.70312C6.83988 6.01562 6.97103 5.9613 7.06773 5.8646C7.16443 5.7679 7.21875 5.63675 7.21875 5.5ZM4.98438 2.23438H6.01562V2.75H4.98438V2.23438ZM3.78125 3.26562C3.78125 3.22004 3.79936 3.17632 3.83159 3.14409C3.86382 3.11186 3.90754 3.09375 3.95312 3.09375H7.04688C7.09246 3.09375 7.13618 3.11186 7.16841 3.14409C7.20064 3.17632 7.21875 3.22004 7.21875 3.26562V3.95312H6.01562C6.01562 3.86196 5.97941 3.77452 5.91494 3.71006C5.85048 3.64559 5.76304 3.60938 5.67188 3.60938H5.32812C5.23696 3.60938 5.14952 3.64559 5.08506 3.71006C5.02059 3.77452 4.98438 3.86196 4.98438 3.95312H3.78125V3.26562ZM5.67188 4.46875H5.32812V3.95312H5.67188V4.46875ZM4.125 5.5V4.29688H4.98438V4.46875C4.98438 4.55992 5.02059 4.64735 5.08506 4.71182C5.14952 4.77628 5.23696 4.8125 5.32812 4.8125H5.67188C5.76304 4.8125 5.85048 4.77628 5.91494 4.71182C5.97941 4.64735 6.01562 4.55992 6.01562 4.46875V4.29688H6.875V5.5C6.875 5.54558 6.85689 5.5893 6.82466 5.62153C6.79243 5.65377 6.74871 5.67188 6.70312 5.67188H4.29688C4.25129 5.67188 4.20757 5.65377 4.17534 5.62153C4.14311 5.5893 4.125 5.54558 4.125 5.5Z" fill="#BDC03D"/>
</svg>
